<svg width="50" height="53" viewBox="0 0 50 53" fill="none" xmlns="http://www.w3.org/2000/svg">
<path d="M10.481 38.476V14.9125C10.481 11.6398 11.7858 10.3307 15.0274 10.3307H17.1477C20.3894 10.3307 21.6942 11.6398 21.6942 14.9125V38.476C21.6942 41.7487 20.3894 43.0578 17.1477 43.0578H15.0274C11.7858 43.0578 10.481 41.7487 10.481 38.476Z" fill="white"/>
<path d="M10.4811 28.3306H6.40359C5.56769 28.3306 4.87451 27.5888 4.87451 26.6942C4.87451 25.7997 5.56769 25.0579 6.40359 25.0579H10.4811V28.3306Z" fill="white"/>
<path d="M27.8106 25.0579H21.6943V28.3306H27.8106V25.0579Z" fill="white"/>
<path d="M44.1209 28.3306H39.0239V25.0579H44.1209C44.9567 25.0579 45.6499 25.7997 45.6499 26.6942C45.6499 27.5888 44.9567 28.3306 44.1209 28.3306Z" fill="white"/>
<path opacity="0.4" d="M27.8105 34.1124V19.2761C27.8105 16.0034 29.1154 14.6943 32.357 14.6943H34.4773C37.719 14.6943 39.0238 16.0034 39.0238 19.2761V34.1124C39.0238 37.3851 37.719 38.6942 34.4773 38.6942H32.357C29.1154 38.6942 27.8105 37.3851 27.8105 34.1124Z" fill="white"/>
</svg>
