<svg width="379" height="401" viewBox="0 0 379 401" fill="none" xmlns="http://www.w3.org/2000/svg">
<path d="M376.596 302.835L378.546 302.391L376.596 302.835ZM243.728 11.9455C244.251 10.9722 243.885 9.75983 242.912 9.23762L227.05 0.727833C226.077 0.20563 224.865 0.571343 224.342 1.54468C223.82 2.51801 224.186 3.73038 225.159 4.25258L239.258 11.8168L231.694 25.9159C231.172 26.8892 231.537 28.1016 232.511 28.6238C233.484 29.146 234.696 28.7802 235.219 27.8069L243.728 11.9455ZM62.6039 326.202C31.7334 342.803 13.3977 356.234 5.2379 366.958C1.14712 372.335 -0.643403 377.371 0.295688 381.96C1.24 386.574 4.80357 390.068 9.8476 392.674C19.8713 397.853 37.2021 400.3 58.6871 400.693C80.2812 401.089 106.416 399.409 134.304 396.091C190.072 389.457 253.044 376.252 301.02 359.853C324.99 351.66 345.343 342.628 359.193 333.147C366.114 328.409 371.525 323.483 374.927 318.393C378.352 313.268 379.797 307.878 378.546 302.391L374.646 303.28C375.592 307.43 374.585 311.706 371.601 316.17C368.594 320.67 363.64 325.256 356.933 329.847C343.527 339.024 323.572 347.917 299.727 356.068C252.073 372.356 189.387 385.51 133.832 392.119C106.058 395.423 80.1153 397.085 58.7603 396.694C37.296 396.301 20.8063 393.833 11.6836 389.12C7.15439 386.78 4.81324 384.084 4.21448 381.158C3.61049 378.206 4.63855 374.352 8.42116 369.38C16.0081 359.41 33.6384 346.32 64.4983 329.725L62.6039 326.202ZM378.546 302.391C377.293 296.89 373.054 291.867 366.918 287.213C360.741 282.529 352.374 278.02 342.382 273.625C322.39 264.833 295.528 256.343 265.764 247.804C206.11 230.69 134.736 213.352 82.2616 192.855C56.0037 182.598 34.7638 171.653 22.1344 159.734C15.8384 153.792 11.8082 147.724 10.2645 141.505C8.73456 135.343 9.59142 128.813 13.4795 121.776C21.3546 107.522 41.5432 91.4156 78.5873 73.2499C115.527 55.1353 168.87 35.1385 242.544 12.9148L241.388 9.08522C167.624 31.3364 114.046 51.4062 76.8261 69.6584C39.7101 87.8594 18.4992 104.419 9.97833 119.841C5.66839 127.642 4.57813 135.202 6.38233 142.469C8.17275 149.681 12.758 156.384 19.3889 162.643C32.6136 175.124 54.4742 186.295 80.8063 196.581C133.512 217.168 205.276 234.613 264.661 251.649C294.417 260.186 321.05 268.613 340.772 277.287C350.636 281.625 358.681 285.987 364.501 290.4C370.36 294.844 373.703 299.143 374.646 303.28L378.546 302.391Z" fill="#8A6EF8"/>
</svg>
