<svg width="44" height="44" viewBox="0 0 44 44" fill="none" xmlns="http://www.w3.org/2000/svg">
<g clip-path="url(#clip0_7962_1371)">
<path fill-rule="evenodd" clip-rule="evenodd" d="M13.2184 33.3849C13.2947 33.2595 13.3228 33.1106 13.2974 32.966C13.2721 32.8215 13.195 32.691 13.0806 32.599C12.9662 32.5071 12.8222 32.4598 12.6756 32.4661C12.5289 32.4724 12.3895 32.5318 12.2834 32.6333C11.8206 33.2676 11.2247 33.7932 10.5375 34.1732C9.85036 34.5532 9.08844 34.7785 8.30509 34.8333C7.5717 34.8236 6.84918 34.6547 6.18757 34.3381C5.52595 34.0216 4.94106 33.565 4.47342 32.9999C4.03148 32.2711 3.76499 31.4495 3.695 30.6C3.625 29.7505 3.75341 28.8963 4.07009 28.1049C4.33115 27.3015 4.83788 26.6004 5.51878 26.1004C6.19968 25.6004 7.02038 25.3268 7.86509 25.3183C8.62573 25.2956 9.38401 25.4137 10.1018 25.6666C10.7938 25.9227 11.4201 26.3298 11.9351 26.8583C11.9772 26.9173 12.0306 26.9674 12.0921 27.0057C12.1536 27.0441 12.222 27.07 12.2935 27.0819C12.365 27.0938 12.4382 27.0915 12.5088 27.0752C12.5794 27.0588 12.6461 27.0287 12.7051 26.9866C12.7641 26.9445 12.8142 26.8911 12.8526 26.8296C12.8909 26.7681 12.9168 26.6997 12.9287 26.6282C12.9406 26.5567 12.9384 26.4835 12.922 26.4129C12.9057 26.3423 12.8756 26.2756 12.8334 26.2166C12.2399 25.4969 11.4866 24.9256 10.6334 24.5483C9.77346 24.1471 8.84799 23.9049 7.90175 23.8333C6.687 23.744 5.47633 24.0539 4.4538 24.7157C3.43127 25.3776 2.6528 26.3552 2.23676 27.4999C1.78217 28.5909 1.60293 29.7769 1.71483 30.9534C1.82673 32.13 2.22633 33.2609 2.87842 34.2466C3.11248 34.4781 3.37784 34.6755 3.66676 34.8333C3.12268 35.1941 2.61871 35.612 2.16342 36.0799C1.82929 36.4544 1.5401 36.8666 1.30176 37.3083C1.0597 37.7414 0.857217 38.1954 0.696756 38.6649C0.334755 39.7398 0.100915 40.8536 8.90233e-05 41.9833C-0.0274637 42.136 0.00474493 42.2935 0.0900533 42.4232C0.175362 42.5529 0.307243 42.6448 0.458422 42.6799C0.53957 42.6986 0.623753 42.6997 0.705376 42.6833C0.786998 42.6669 0.864191 42.6333 0.931824 42.5847C0.999456 42.5361 1.05598 42.4737 1.09763 42.4017C1.13929 42.3296 1.16513 42.2494 1.17342 42.1666C1.48767 41.2013 1.88008 40.2632 2.34676 39.3616L2.95176 38.2616C3.15342 37.9133 3.37342 37.5649 3.59342 37.2166C3.97308 36.645 4.38311 36.0943 4.82176 35.5666C5.94564 36.1644 7.22229 36.4133 8.48842 36.2816C9.43709 36.1616 10.3494 35.8412 11.1649 35.3418C11.9803 34.8424 12.6803 34.1754 13.2184 33.3849Z" fill="#15B000"/>
<path fill-rule="evenodd" clip-rule="evenodd" d="M43.395 38.6649C43.2346 38.1954 43.0321 37.7414 42.79 37.3083C42.5517 36.8666 42.2625 36.4544 41.9284 36.0799C41.4731 35.612 40.9691 35.1941 40.425 34.8333C40.6863 34.6461 40.9207 34.424 41.1217 34.1733C41.7615 33.1962 42.1542 32.0783 42.266 30.9158C42.3778 29.7533 42.2053 28.581 41.7634 27.4999C41.3473 26.3552 40.5689 25.3776 39.5463 24.7157C38.5238 24.0539 37.3131 23.744 36.0984 23.8333C35.1742 23.894 34.2681 24.1174 33.4217 24.4933C32.5685 24.8706 31.8152 25.4419 31.2217 26.1616C31.1293 26.2637 31.0813 26.3983 31.0882 26.5359C31.095 26.6734 31.1563 26.8026 31.2584 26.8949C31.3605 26.9873 31.4951 27.0354 31.6326 27.0285C31.7702 27.0216 31.8993 26.9604 31.9917 26.8583C32.5067 26.3298 33.133 25.9227 33.825 25.6666C34.5439 25.42 35.3022 25.3081 36.0617 25.3366C36.9064 25.3452 37.7271 25.6187 38.408 26.1187C39.0889 26.6187 39.5956 27.3199 39.8567 28.1233C40.1813 28.9066 40.3204 29.7543 40.2632 30.6003C40.2059 31.4462 39.9539 32.2675 39.5267 32.9999C39.0454 33.5382 38.4544 33.9672 37.7935 34.2581C37.1326 34.549 36.4171 34.6951 35.695 34.6866C34.9235 34.6494 34.169 34.4468 33.4826 34.0925C32.7962 33.7383 32.194 33.2406 31.7167 32.6333C31.6106 32.5318 31.4712 32.4724 31.3246 32.4661C31.1779 32.4598 31.0339 32.5071 30.9195 32.599C30.8051 32.691 30.7281 32.8215 30.7027 32.966C30.6773 33.1106 30.7054 33.2595 30.7817 33.3849C31.3259 34.193 32.0387 34.8736 32.8711 35.38C33.7034 35.8864 34.6355 36.2065 35.6034 36.3183C36.8392 36.4317 38.0813 36.1832 39.1784 35.6033C39.617 36.1309 40.027 36.6817 40.4067 37.2533C40.6267 37.6016 40.8467 37.9499 41.0484 38.2983L41.6534 39.3983C42.1182 40.288 42.5106 41.2138 42.8267 42.1666C42.8399 42.2443 42.8685 42.3185 42.911 42.3849C42.9534 42.4512 43.0088 42.5083 43.0738 42.5528C43.1389 42.5973 43.2122 42.6282 43.2894 42.6438C43.3666 42.6593 43.4462 42.6591 43.5234 42.6433C43.6707 42.6123 43.8012 42.5275 43.8893 42.4054C43.9775 42.2834 44.0169 42.1329 44 41.9833C43.929 40.8573 43.7259 39.7435 43.395 38.6649Z" fill="#15B000"/>
<path fill-rule="evenodd" clip-rule="evenodd" d="M30.2684 34.9433C29.9814 34.418 29.6371 33.9262 29.2418 33.4767C28.6255 32.7796 27.9232 32.1636 27.1518 31.6434C27.9812 30.8453 28.6198 29.8702 29.0197 28.7909C29.4197 27.7116 29.5708 26.5559 29.4618 25.41C29.457 24.4759 29.2682 23.5518 28.9063 22.6906C28.5444 21.8294 28.0164 21.048 27.3524 20.3908C26.6885 19.7337 25.9016 19.2138 25.0367 18.8608C24.1719 18.5077 23.2459 18.3285 22.3118 18.3334C20.2845 18.2587 18.3097 18.987 16.8164 20.3602C15.3231 21.7333 14.432 23.6403 14.3368 25.6667C14.2883 26.9985 14.6442 28.3138 15.3576 29.4395C16.071 30.5652 17.1084 31.4486 18.3334 31.9734C17.2949 32.5526 16.3129 33.2278 15.4001 33.99C14.5773 34.6907 13.8663 35.513 13.2918 36.4284C12.7584 37.2046 12.3863 38.08 12.1973 39.0027C12.0084 39.9254 12.0065 40.8766 12.1918 41.8C12.2137 41.9556 12.2965 42.0961 12.4219 42.1907C12.5474 42.2852 12.7054 42.3261 12.8609 42.3042C13.0165 42.2823 13.1571 42.1995 13.2516 42.074C13.3462 41.9485 13.387 41.7906 13.3651 41.635C13.369 40.1257 13.9156 38.6681 14.9051 37.5284C15.4551 36.795 16.0968 36.08 16.7384 35.3834C17.7651 34.3017 18.7918 33.275 19.7451 32.45C20.4648 32.6345 21.2026 32.739 21.9451 32.7617C22.015 32.7667 22.0851 32.7578 22.1515 32.7356C22.218 32.7134 22.2793 32.6783 22.3321 32.6323C22.385 32.5863 22.4282 32.5303 22.4593 32.4676C22.4904 32.4048 22.5088 32.3366 22.5134 32.2667C22.5185 32.1287 22.4697 31.9941 22.3773 31.8914C22.2849 31.7888 22.1562 31.7261 22.0184 31.7167C18.0218 31.35 16.1334 28.875 16.0784 26.2167C16.6203 26.5021 17.2112 26.6825 17.8201 26.7484C18.1056 26.7936 18.3963 26.7936 18.6818 26.7484C18.9779 26.7057 19.2675 26.6256 19.5434 26.51C20.2501 26.2652 20.8816 25.8421 21.3768 25.2817C21.3768 25.2817 21.3768 25.135 21.4684 25.08L22.1651 25.4467C22.7852 25.7369 23.4375 25.9523 24.1084 26.0884C25.3715 26.2912 26.6588 26.2912 27.9218 26.0884C28.0732 27.4399 27.7046 28.7984 26.8908 29.888C26.077 30.9776 24.879 31.7166 23.5401 31.955C23.3827 31.9735 23.2388 32.0529 23.1394 32.1764C23.04 32.2998 22.993 32.4573 23.0084 32.615C23.0175 32.6923 23.0418 32.767 23.08 32.8348C23.1182 32.9026 23.1695 32.9621 23.231 33.0099C23.2924 33.0577 23.3627 33.0927 23.4378 33.1131C23.5129 33.1334 23.5913 33.1386 23.6684 33.1284C24.5433 33.0567 25.3931 32.8005 26.1618 32.3767C26.7775 33.0498 27.3356 33.7734 27.8301 34.54C28.1051 34.9617 28.3801 35.3834 28.6368 35.8234C28.8934 36.2634 29.1318 36.7217 29.3701 37.1984C29.9303 38.3145 30.3845 39.4807 30.7268 40.6817C30.7619 40.8367 30.8566 40.9716 30.9903 41.0574C31.1241 41.1432 31.2863 41.1728 31.4418 41.14C31.5178 41.1247 31.5901 41.0945 31.6543 41.0512C31.7186 41.0078 31.7737 40.9521 31.8163 40.8873C31.8589 40.8225 31.8883 40.7499 31.9026 40.6737C31.917 40.5975 31.9162 40.5192 31.9001 40.4433C31.7394 39.1555 31.4381 37.889 31.0018 36.6667C30.8114 36.0707 30.5659 35.4938 30.2684 34.9433ZM19.6901 24.6584H18.8101L17.9301 24.7867C17.3311 24.9525 16.7169 25.0569 16.0968 25.0984C16.3999 23.7362 17.1967 22.5344 18.3334 21.725C18.8413 22.7292 19.5385 23.6256 20.3868 24.365C20.4168 24.3728 20.4484 24.3728 20.4784 24.365C20.231 24.4999 19.9655 24.5987 19.6901 24.6584ZM24.4568 24.2917C23.9288 24.1221 23.4141 23.9137 22.9168 23.6684C22.4123 23.4334 21.9279 23.1574 21.4684 22.8434C20.7063 22.3253 20.0159 21.7088 19.4151 21.01C20.3438 20.5936 21.349 20.3751 22.3668 20.3684C23.6424 20.3249 24.8887 20.7566 25.8642 21.5797C26.8397 22.4027 27.4749 23.5586 27.6468 24.8234C26.5655 24.7789 25.494 24.6003 24.4568 24.2917Z" fill="#15B000"/>
<path fill-rule="evenodd" clip-rule="evenodd" d="M22.8433 34.9433C22.8433 34.8023 22.7873 34.667 22.6876 34.5673C22.5879 34.4676 22.4527 34.4116 22.3116 34.4116C22.1706 34.4116 22.0354 34.4676 21.9357 34.5673C21.836 34.667 21.78 34.8023 21.78 34.9433C21.615 35.6033 21.4133 36.2083 21.3033 36.8683C21.2758 37.1487 21.2758 37.4312 21.3033 37.7116C21.2851 37.9863 21.2851 38.2619 21.3033 38.5366C21.3033 39.1966 21.56 39.8016 21.6883 40.4616C21.6881 40.5394 21.704 40.6165 21.7348 40.6879C21.7656 40.7594 21.8108 40.8237 21.8675 40.877C21.9242 40.9303 21.9913 40.9714 22.0645 40.9977C22.1378 41.024 22.2157 41.035 22.2933 41.03C22.3719 41.03 22.4497 41.0142 22.5221 40.9836C22.5945 40.953 22.66 40.9081 22.7148 40.8517C22.7695 40.7953 22.8123 40.7284 22.8407 40.6551C22.8691 40.5818 22.8824 40.5035 22.88 40.425C22.88 39.7833 23.1183 39.1783 23.1916 38.5916C23.2099 38.323 23.2099 38.0535 23.1916 37.785C23.2191 37.5106 23.2191 37.2343 23.1916 36.96C23.1366 36.19 22.9533 35.6033 22.8433 34.9433Z" fill="#15B000"/>
<path fill-rule="evenodd" clip-rule="evenodd" d="M25.2451 10.505L23.0268 9.16667C23.0268 9.16667 22.4768 8.78167 22.2568 8.67167C22.0568 8.57197 21.8305 8.53778 21.61 8.57399C21.3895 8.61019 21.186 8.71493 21.0284 8.87334C20.3318 9.62501 19.5984 10.3217 18.8834 11.0367C17.7834 12.1183 16.7018 13.1633 15.5468 14.1533C14.2511 15.2331 12.8986 16.2429 11.4951 17.1783C11.4373 17.2145 11.3872 17.2616 11.3476 17.3171C11.3081 17.3725 11.2798 17.4353 11.2645 17.5017C11.2492 17.5681 11.2471 17.6368 11.2583 17.704C11.2696 17.7712 11.294 17.8356 11.3301 17.8933C11.3662 17.9511 11.4133 18.0012 11.4688 18.0408C11.5243 18.0803 11.587 18.1086 11.6534 18.1239C11.7198 18.1392 11.7886 18.1413 11.8558 18.1301C11.923 18.1188 11.9873 18.0945 12.0451 18.0583C13.9673 17.0162 15.8061 15.8271 17.5451 14.5017C19.0694 13.3651 20.5263 12.1408 21.9084 10.835L24.1818 12.21L33.5318 18.3333C33.666 18.4165 33.8274 18.4439 33.9816 18.4096C34.1357 18.3753 34.2704 18.2822 34.3568 18.15C34.4012 18.0854 34.4322 18.0125 34.448 17.9356C34.4637 17.8588 34.4639 17.7796 34.4486 17.7026C34.4332 17.6257 34.4025 17.5527 34.3584 17.4878C34.3143 17.4229 34.2576 17.3676 34.1918 17.325C31.7534 15.62 29.4984 13.6583 27.1151 11.825C26.4918 11.385 25.8684 11 25.2451 10.505Z" fill="#15B000"/>
<path fill-rule="evenodd" clip-rule="evenodd" d="M10.3402 12.3933C11.5868 11.5866 12.8335 10.7066 14.0068 9.80831C15.8402 8.46998 17.6735 7.07665 19.3968 5.70165L21.7985 3.86831L22.0002 3.66665C22.0002 3.66665 22.4952 3.95998 22.5868 4.05165C23.2285 4.65665 23.8335 5.26165 24.4202 5.88498C24.7135 6.12331 25.0252 6.37998 25.3368 6.59998C26.5715 7.47053 27.8571 8.2664 29.1868 8.98331C31.1302 10.12 33.1285 11.1283 35.0535 12.21C35.1197 12.2499 35.1931 12.2763 35.2695 12.2878C35.3459 12.2992 35.4238 12.2955 35.4987 12.2767C35.5737 12.258 35.6442 12.2246 35.7062 12.1786C35.7683 12.1325 35.8206 12.0746 35.8602 12.0083C35.9371 11.8708 35.959 11.7092 35.9216 11.5562C35.8842 11.4031 35.7902 11.2699 35.6585 11.1833C33.8252 10.01 31.9002 8.87331 30.0302 7.62665C28.8196 6.82716 27.6565 5.95792 26.5468 5.02331L23.9618 2.54831C23.6534 2.21457 23.3227 1.90219 22.9718 1.61331C22.7498 1.45415 22.4913 1.35329 22.2202 1.31998C21.9866 1.29999 21.752 1.34438 21.5419 1.44831C21.215 1.67937 20.9027 1.9304 20.6068 2.19998L18.2052 4.21665C16.5002 5.71998 14.8868 7.33331 13.1818 8.70831C12.0452 9.69831 10.9085 10.5416 9.73518 11.5316C9.66738 11.5662 9.60779 11.615 9.56045 11.6746C9.5131 11.7341 9.47911 11.8032 9.46075 11.8771C9.4424 11.9509 9.44012 12.0279 9.45407 12.1027C9.46802 12.1775 9.49788 12.2485 9.54161 12.3108C9.58535 12.3731 9.64195 12.4253 9.70759 12.4638C9.77323 12.5023 9.84637 12.5263 9.92208 12.5341C9.99779 12.5419 10.0743 12.5334 10.1464 12.5091C10.2186 12.4848 10.2846 12.4453 10.3402 12.3933Z" fill="#15B000"/>
</g>
<defs>
<clipPath id="clip0_7962_1371">
<rect width="44" height="44" fill="white"/>
</clipPath>
</defs>
</svg>
