<svg width="37" height="35" viewBox="0 0 37 35" fill="none" xmlns="http://www.w3.org/2000/svg">
<g clip-path="url(#clip0_10435_739)">
<path d="M35.6863 15.9608L20.3424 1.49517C19.4594 0.662093 18.0262 0.662093 17.1418 1.49517L13.9559 4.49938L17.9975 8.30989C18.9371 8.01094 20.0139 8.21147 20.7625 8.91724C21.515 9.62748 21.726 10.6514 21.4012 11.5401L25.2964 15.2128C26.2388 14.9065 27.3264 15.1044 28.0787 15.8152C29.131 16.8065 29.131 18.4136 28.0787 19.4055C27.8286 19.6414 27.5317 19.8285 27.2049 19.9561C26.8781 20.0838 26.5278 20.1495 26.174 20.1495C25.8203 20.1495 25.47 20.0838 25.1432 19.9561C24.8164 19.8285 24.5195 19.6414 24.2694 19.4055C23.8938 19.051 23.6378 18.5997 23.5335 18.1083C23.4292 17.617 23.4814 17.1075 23.6834 16.644L20.051 13.2194L20.0504 22.2328C20.314 22.3551 20.5546 22.5172 20.7628 22.7126C21.8146 23.7039 21.8146 25.3105 20.7628 26.3039C19.7108 27.2953 18.0056 27.2953 16.9547 26.3039C15.9029 25.3107 15.9029 23.7042 16.9547 22.7126C17.2069 22.4749 17.5066 22.2867 17.8364 22.1588V13.0619C17.5062 12.9345 17.2064 12.7461 16.9547 12.5078C16.1579 11.7571 15.9661 10.6548 16.3748 9.73194L12.3902 5.97524L1.86921 15.8939C1.44475 16.2942 1.2063 16.8371 1.2063 17.4031C1.2063 17.9691 1.44475 18.512 1.86921 18.9123L17.2133 33.378C18.0969 34.211 19.5295 34.211 20.4145 33.378L35.6865 18.9795C36.1109 18.5791 36.3493 18.0362 36.3492 17.4701C36.3492 16.9041 36.1107 16.3612 35.6863 15.9608Z" fill="white"/>
</g>
<defs>
<clipPath id="clip0_10435_739">
<rect width="35.6341" height="33.5959" fill="white" transform="translate(0.960449 0.638428)"/>
</clipPath>
</defs>
</svg>
