<svg width="50" height="52" viewBox="0 0 50 52" fill="none" xmlns="http://www.w3.org/2000/svg">
<g clip-path="url(#clip0_7962_1270)">
<path fill-rule="evenodd" clip-rule="evenodd" d="M22.8066 26.8466L22.9166 25.27C22.9485 24.645 22.7905 24.025 22.4632 23.4916C22.136 22.9581 21.6549 22.5363 21.0833 22.2816C19.5986 21.8162 18.0555 21.5632 16.4999 21.53C15.3797 21.3917 14.2468 21.3917 13.1266 21.53C12.2541 21.6486 11.4369 22.0253 10.7799 22.6116C10.3522 23.0282 10.0477 23.5548 9.89993 24.1333C9.70772 25.0861 9.63994 26.0598 9.69826 27.03C7.86493 27.03 5.92159 27.195 4.03326 27.195C3.89225 27.195 3.75702 27.251 3.65731 27.3507C3.55761 27.4504 3.50159 27.5856 3.50159 27.7266C3.50159 27.8676 3.55761 28.0029 3.65731 28.1026C3.75702 28.2023 3.89225 28.2583 4.03326 28.2583C7.93826 28.5333 11.8616 28.7166 15.8033 28.7716H21.6516H27.4816C29.4249 28.7716 30.8549 28.9733 32.5416 29.1566C32.8133 30.3276 32.8999 31.5339 32.7983 32.7316C32.8552 34.0698 32.4032 35.3799 31.5333 36.3983C30.8892 36.6453 30.2063 36.7757 29.5166 36.7833L26.4366 37.095L20.5333 37.5716V36.93C20.4363 36.3391 20.1777 35.7867 19.7862 35.3337C19.3947 34.8807 18.8855 34.5448 18.3149 34.3633C17.7456 34.1842 17.1352 34.183 16.5653 34.3599C15.9953 34.5368 15.4928 34.8834 15.1249 35.3533C14.6415 35.9696 14.3314 36.7038 14.2266 37.48C14.2266 37.48 14.2266 37.6266 14.2266 37.6816C12.8699 37.5716 9.99159 37.425 7.40659 37.1133C6.49473 37.0255 5.58875 36.8847 4.69326 36.6916C4.22403 36.6298 3.77374 36.4672 3.37326 36.215C2.57182 35.5911 2.05088 34.6745 1.92493 33.6666C1.7693 31.9695 1.80004 30.2604 2.01659 28.57C2.03636 28.4965 2.04012 28.4196 2.02761 28.3445C2.0151 28.2694 1.98661 28.1979 1.94408 28.1348C1.90155 28.0717 1.84596 28.0184 1.78108 27.9786C1.71619 27.9389 1.64352 27.9135 1.56797 27.9042C1.49243 27.8949 1.41577 27.902 1.34319 27.9249C1.27061 27.9478 1.20378 27.986 1.14724 28.0369C1.0907 28.0879 1.04576 28.1504 1.01546 28.2202C0.985156 28.29 0.970196 28.3655 0.971592 28.4416C0.524298 30.2106 0.284351 32.0256 0.256592 33.85C0.272063 35.2712 0.837101 36.6312 1.83326 37.645C3.02793 38.3954 4.40138 38.8132 5.81159 38.855C8.53508 39.0052 11.2648 39.0052 13.9883 38.855C14.0124 39.4137 14.0675 39.9707 14.1533 40.5233C14.1716 40.6627 14.2426 40.7897 14.3517 40.8784C14.4608 40.967 14.5997 41.0105 14.7399 41C14.8744 40.9817 14.9969 40.9126 15.0821 40.8069C15.1673 40.7012 15.2089 40.567 15.1983 40.4316C15.1539 39.666 15.1907 38.8978 15.3083 38.14C15.397 37.4966 15.7007 36.9022 16.1699 36.4533C16.3393 36.278 16.5577 36.1579 16.7966 36.1088C17.0354 36.0598 17.2834 36.084 17.5083 36.1783C17.7316 36.2576 17.9287 36.3972 18.0775 36.5817C18.2264 36.7662 18.3212 36.9882 18.3516 37.2233C18.3516 37.535 18.4433 37.865 18.4799 38.2133C18.5348 38.719 18.5348 39.2292 18.4799 39.735C18.415 40.2433 18.2398 40.7314 17.9666 41.165C17.7243 41.4721 17.4177 41.7224 17.0683 41.8983C16.943 41.9893 16.799 42.0513 16.6468 42.0798C16.4946 42.1084 16.338 42.1027 16.1883 42.0633C16.1028 42.0107 16.0281 41.9423 15.9683 41.8616C15.8666 41.7024 15.7747 41.5371 15.6933 41.3666C15.6393 41.2162 15.5281 41.0933 15.3839 41.0246C15.2396 40.9559 15.074 40.947 14.9233 41C14.8515 41.0316 14.7868 41.0773 14.733 41.1344C14.6792 41.1914 14.6374 41.2587 14.6101 41.3322C14.5828 41.4057 14.5704 41.4839 14.5738 41.5623C14.5772 41.6406 14.5963 41.7175 14.6299 41.7883C14.7179 42.0715 14.8411 42.3425 14.9966 42.595C15.1414 42.8132 15.3284 43.0002 15.5466 43.145C15.8226 43.3021 16.129 43.3981 16.4453 43.4266C16.7616 43.4551 17.0803 43.4153 17.3799 43.31C18.1286 43.1052 18.807 42.6994 19.3416 42.1366C19.8588 41.5334 20.2123 40.8074 20.3683 40.0283C20.4694 39.5829 20.5247 39.1283 20.5333 38.6716C22.4583 38.6716 25.7399 38.8916 28.3799 38.6716C29.901 38.7027 31.4081 38.3762 32.7799 37.7183C33.7794 36.5977 34.3338 35.1499 34.3383 33.6483C34.8333 26.8283 33.2933 27.36 22.8066 26.8466ZM14.5199 26.8466L10.7433 26.9933C10.7999 26.3121 10.9164 25.6373 11.0916 24.9766C11.1958 24.5527 11.4336 24.1734 11.7699 23.895C12.2329 23.6092 12.7659 23.4569 13.3099 23.455C14.2962 23.4105 15.2845 23.4596 16.2616 23.6016H18.0949C18.8727 23.556 19.6528 23.6365 20.4049 23.84C20.7391 23.9435 21.0338 24.1463 21.25 24.4214C21.4661 24.6965 21.5934 25.0308 21.6149 25.38V26.7733C19.2499 26.7 16.8849 26.7 14.5199 26.755V26.8466Z" fill="#EC1358"/>
<path fill-rule="evenodd" clip-rule="evenodd" d="M31.2765 39.1666C31.1995 39.1642 31.1227 39.177 31.0506 39.2042C30.9785 39.2315 30.9124 39.2726 30.8562 39.3254C30.8001 39.3782 30.7548 39.4415 30.7231 39.5118C30.6914 39.5821 30.6739 39.6579 30.6715 39.735L30.3049 46.445C30.3318 47.0789 30.2763 47.7137 30.1399 48.3333C30.0834 48.6424 29.9291 48.9252 29.6999 49.14C29.1565 49.5186 28.5254 49.7521 27.8665 49.8183C26.7384 49.9934 25.5982 50.0792 24.4565 50.075H20.0199C16.5182 49.9467 12.9982 49.7083 9.4782 49.69C8.10446 49.7735 6.72693 49.7735 5.3532 49.69C4.58497 49.6716 3.84411 49.401 3.24486 48.92C3.04634 48.7092 2.92377 48.4382 2.89653 48.15C2.83623 47.5404 2.83623 46.9263 2.89653 46.3166V41.4766V39.4233C2.91338 39.3535 2.91632 39.281 2.90517 39.2101C2.89402 39.1391 2.86901 39.0711 2.83155 39.0098C2.7941 38.9485 2.74494 38.8952 2.68689 38.8529C2.62883 38.8106 2.56301 38.7802 2.4932 38.7633C2.42338 38.7465 2.35092 38.7435 2.27997 38.7547C2.20901 38.7658 2.14095 38.7908 2.07966 38.8283C2.01838 38.8657 1.96507 38.9149 1.92278 38.973C1.88049 39.031 1.85005 39.0968 1.8332 39.1666L1.52153 46.1883C1.43024 46.8995 1.40569 47.6176 1.4482 48.3333C1.49649 48.944 1.74085 49.5228 2.14486 49.9833C2.75902 50.6061 3.54355 51.0334 4.39986 51.2116C6.08793 51.5077 7.80183 51.6305 9.51486 51.5783C12.9982 51.5783 16.4999 51.9266 20.0015 52H24.5849C25.8165 51.959 27.0428 51.818 28.2515 51.5783C29.172 51.4089 30.0354 51.0118 30.7632 50.4233C31.2268 49.9752 31.5352 49.3907 31.6432 48.755C31.7658 47.9977 31.8088 47.2296 31.7715 46.4633V39.8083C31.7874 39.6582 31.7448 39.5078 31.6526 39.3883C31.5604 39.2688 31.4257 39.1894 31.2765 39.1666Z" fill="#EC1358"/>
<path fill-rule="evenodd" clip-rule="evenodd" d="M43.2116 17.4417C42.6983 16.2684 41.8916 15.0767 41.3783 14.1234C41.0483 13.4817 40.7366 12.6017 40.3149 11.8867C40.0878 11.4821 39.7968 11.1168 39.4533 10.805C38.8562 10.363 38.1667 10.0621 37.4366 9.92502C36.0433 9.61335 34.2649 9.54002 33.4033 9.35668C31.9916 9.06335 30.6166 8.62335 29.2049 8.33002C28.5534 8.17418 27.8918 8.06392 27.2249 8.00002C26.6519 7.94352 26.0746 7.94352 25.5016 8.00002C25.1288 8.03738 24.7735 8.17695 24.4749 8.40335C24.1327 8.68614 23.9047 9.08351 23.8333 9.52168C23.6133 10.4384 23.5949 11.9417 23.4666 12.4367C23.1952 13.3723 22.852 14.2856 22.4399 15.1684C21.7799 16.525 21.0099 17.8267 20.2399 19.0917C20.2022 19.1481 20.1761 19.2115 20.1631 19.2781C20.1501 19.3448 20.1504 19.4133 20.164 19.4798C20.1777 19.5463 20.2044 19.6094 20.2426 19.6655C20.2808 19.7216 20.3297 19.7696 20.3866 19.8067C20.5035 19.8837 20.6461 19.9115 20.7834 19.8841C20.9207 19.8566 21.0416 19.7761 21.1199 19.66C21.9633 18.395 22.8249 17.0934 23.5583 15.7184C24.0526 14.795 24.4696 13.8323 24.8049 12.84L25.4649 9.68668H27.0599C27.6422 9.75062 28.2185 9.86097 28.7833 10.0167C30.1949 10.365 31.5699 10.8417 32.9633 11.19C33.7149 11.355 35.1633 11.4467 36.4466 11.685C36.8068 11.7447 37.1622 11.8305 37.5099 11.9417C37.3449 12.3267 37.1799 12.7117 36.9966 13.0784C36.6666 13.775 36.3183 14.435 35.9333 15.095C35.5483 15.755 35.3466 16.0484 35.1083 16.525C34.8752 16.9748 34.7379 17.4679 34.7049 17.9734C34.6869 18.4906 34.8489 18.998 35.1631 19.4092C35.4774 19.8204 35.9245 20.1099 36.4283 20.2284L37.5099 20.4667H39.4899L41.8366 20.1367C41.8366 20.2834 41.8366 20.4484 41.7083 20.6134C41.4333 21.4384 41.0299 22.3184 40.8466 22.905C40.149 25.3195 39.3041 27.6889 38.3166 30C37.6504 31.4987 36.872 32.9451 35.9883 34.3267C35.9449 34.3917 35.9148 34.4646 35.8996 34.5412C35.8845 34.6179 35.8846 34.6967 35.8999 34.7734C35.9152 34.85 35.9455 34.9228 35.9889 34.9877C36.0324 35.0526 36.0882 35.1083 36.1533 35.1517C36.2183 35.195 36.2912 35.2251 36.3678 35.2403C36.4444 35.2555 36.5233 35.2554 36.5999 35.24C36.6765 35.2247 36.7494 35.1945 36.8143 35.151C36.8792 35.1075 36.9349 35.0517 36.9783 34.9867C37.9544 33.5874 38.8129 32.1095 39.5449 30.5684C40.6511 28.2821 41.6185 25.9311 42.4416 23.5284C42.6799 22.85 43.2299 21.805 43.5233 20.87C43.7036 20.365 43.7784 19.8284 43.7433 19.2934C43.6628 18.6524 43.4834 18.0277 43.2116 17.4417ZM39.4349 19L37.8033 18.8167L37.1616 18.5784C36.8683 18.45 36.7033 18.3584 36.7033 18.175C36.7392 17.8216 36.8451 17.4788 37.0149 17.1667C37.2166 16.745 37.4183 16.2867 37.5833 15.865C37.7483 15.4434 38.0049 14.6734 38.1883 14.0317C38.3716 13.39 38.4266 13.1884 38.5366 12.7667C38.5366 12.8584 38.6649 12.95 38.7199 13.06C39.0499 13.72 39.3433 14.4534 39.6366 14.8934C39.9299 15.3334 40.7549 16.7267 41.2683 17.6067C41.4601 17.9607 41.6256 18.3283 41.7633 18.7067L39.4349 19Z" fill="#EC1358"/>
<path fill-rule="evenodd" clip-rule="evenodd" d="M11.7515 20.8333C11.729 20.8995 11.7202 20.9695 11.7257 21.0391C11.7312 21.1088 11.7509 21.1766 11.7835 21.2384C11.8161 21.3002 11.861 21.3546 11.9154 21.3985C11.9698 21.4423 12.0325 21.4746 12.0998 21.4933C12.1717 21.5333 12.2523 21.5547 12.3345 21.5557C12.4167 21.5567 12.4978 21.5372 12.5706 21.499C12.6433 21.4608 12.7054 21.4051 12.7513 21.3369C12.7971 21.2687 12.8253 21.1901 12.8332 21.1083C13.3241 19.8715 13.6866 18.5876 13.9148 17.2766C14.0915 15.9753 14.2017 14.6659 14.2448 13.3533C14.2448 13.0783 13.9515 12.18 13.9148 11.63C15.9473 11.7294 17.973 11.9375 19.9832 12.2533C20.1387 12.2861 20.3008 12.2565 20.4346 12.1707C20.5684 12.0849 20.6631 11.95 20.6982 11.795C20.7111 11.714 20.7074 11.6313 20.6874 11.5519C20.6674 11.4724 20.6314 11.3978 20.5817 11.3327C20.532 11.2675 20.4695 11.2132 20.3982 11.1729C20.3268 11.1326 20.248 11.1072 20.1665 11.0983C18.093 10.5169 15.9872 10.0578 13.8598 9.72331C13.5688 9.67823 13.2711 9.70849 12.9951 9.81119C12.7191 9.91389 12.474 10.0856 12.2832 10.31C12.1456 10.5964 12.0706 10.9089 12.0632 11.2266C12.0632 11.905 12.1732 12.9133 12.0632 13.3166C12.1653 14.8244 12.1653 16.3373 12.0632 17.845C12.0337 18.8475 11.9296 19.8463 11.7515 20.8333Z" fill="#EC1358"/>
<path fill-rule="evenodd" clip-rule="evenodd" d="M29.0032 16.085C29.4877 16.2953 29.9835 16.479 30.4882 16.635C31.2582 16.8916 32.0282 17.0566 32.7615 17.3316C32.892 17.411 33.0476 17.4381 33.1972 17.4075C33.3469 17.3769 33.4794 17.2909 33.5682 17.1666C33.6066 17.0983 33.6309 17.0229 33.6397 16.945C33.6485 16.8671 33.6416 16.7882 33.6194 16.713C33.5972 16.6378 33.5601 16.5678 33.5104 16.5071C33.4606 16.4465 33.3992 16.3965 33.3298 16.36C32.6878 15.8556 32.0074 15.402 31.2948 15.0033C30.9944 14.8286 30.682 14.6754 30.3598 14.545C30.0298 14.4227 29.6998 14.3127 29.3698 14.215C28.5632 14.0133 27.7748 13.94 26.9865 13.8116C26.8623 13.7894 26.7342 13.8122 26.6252 13.8757C26.5162 13.9393 26.4333 14.0395 26.3915 14.1585C26.3496 14.2776 26.3514 14.4076 26.3966 14.5254C26.4418 14.6433 26.5274 14.7412 26.6382 14.8016C27.4998 15.1683 28.1598 15.6816 29.0032 16.085Z" fill="#EC1358"/>
<path fill-rule="evenodd" clip-rule="evenodd" d="M24.7132 18.6334C24.7016 18.7682 24.74 18.9025 24.8212 19.0108C24.9024 19.119 25.0206 19.1935 25.1532 19.2201C26.0454 19.5207 26.9205 19.8696 27.7749 20.2651C28.3745 20.5053 28.9865 20.7134 29.6082 20.8884C30.6349 21.2184 31.6799 21.4384 32.7616 21.6767C32.8336 21.7057 32.9108 21.7197 32.9884 21.7177C33.0659 21.7157 33.1423 21.6978 33.2127 21.6652C33.2832 21.6325 33.3462 21.5858 33.3978 21.5279C33.4495 21.47 33.4888 21.4021 33.5132 21.3284C33.5424 21.2551 33.5566 21.1767 33.5548 21.0978C33.553 21.0189 33.5353 20.9412 33.5028 20.8693C33.4703 20.7975 33.4236 20.7329 33.3655 20.6794C33.3075 20.626 33.2392 20.5849 33.1649 20.5584C32.2666 20.1184 31.4599 19.6234 30.5982 19.2017C30.0085 18.9167 29.3951 18.6836 28.7649 18.5051C27.6588 18.2539 26.5254 18.143 25.3916 18.1751C25.3165 18.1495 25.2365 18.1416 25.1579 18.1521C25.0793 18.1626 25.0042 18.1912 24.9384 18.2356C24.8727 18.28 24.8182 18.339 24.7791 18.408C24.74 18.4771 24.7175 18.5542 24.7132 18.6334Z" fill="#EC1358"/>
</g>
<rect x="6" y="0.416748" width="44" height="44.6122" rx="15" fill="#EC1358" fill-opacity="0.16"/>
<defs>
<clipPath id="clip0_7962_1270">
<rect width="44" height="44" fill="white" transform="translate(0 8)"/>
</clipPath>
</defs>
</svg>
