<svg width="50" height="51" viewBox="0 0 50 51" fill="none" xmlns="http://www.w3.org/2000/svg">
<rect x="6" width="44" height="44" rx="15" fill="#EC1414" fill-opacity="0.16"/>
<g filter="url(#filter0_b_7962_1333)">
<path d="M21.5498 27.1189C20.8185 26.4441 20.8185 25.9533 18.7747 25.9738C18.0145 26.0964 17.3052 26.4634 16.7373 27.028C16.1695 27.5926 15.769 28.3291 15.587 29.1432C15.4175 29.7553 15.4217 30.409 15.5991 31.0185C15.7764 31.6279 16.1187 32.1646 16.5808 32.5581C17.2274 32.9569 17.9658 33.144 18.7074 33.0969C19.4491 33.0497 20.1625 32.7703 20.7622 32.2922C21.4004 31.8963 21.8975 31.2773 22.1731 30.5352C22.4488 29.793 22.4868 28.9712 22.281 28.2026C22.1223 27.7815 21.8712 27.4094 21.5498 27.1189ZM19.6747 30.6155C19.3891 30.8478 19.0487 30.9866 18.6934 31.0156C18.338 31.0445 17.9825 30.9625 17.6684 30.7791C17.1996 30.4519 17.2746 29.7567 17.4621 29.1432C17.6496 28.5298 18.1559 27.5483 18.7934 27.4256C19.0906 27.3864 19.392 27.4253 19.6726 27.5391C19.9531 27.653 20.2046 27.8384 20.406 28.0799C20.5926 28.2565 20.7238 28.4925 20.781 28.7547C21.0435 29.5522 20.4247 30.2065 19.7497 30.6155H19.6747Z" fill="#EC1414"/>
<path d="M10.4496 37.8337C9.7183 37.1589 9.7183 36.6682 7.65572 36.6886C6.89896 36.815 6.1937 37.1837 5.62949 37.748C5.06528 38.3123 4.66757 39.0468 4.48685 39.8581C4.30053 40.4814 4.29605 41.1524 4.47403 41.7787C4.65202 42.4049 5.00371 42.9555 5.48064 43.3547C6.12725 43.7536 6.86562 43.9406 7.60725 43.8935C8.34889 43.8464 9.06232 43.567 9.66204 43.0889C10.3002 42.693 10.7973 42.0739 11.073 41.3318C11.3486 40.5897 11.3866 39.7678 11.1809 38.9992C11.0331 38.5486 10.7812 38.1471 10.4496 37.8337ZM8.5745 41.3303C8.28889 41.5627 7.94849 41.7014 7.59316 41.7304C7.23784 41.7594 6.8823 41.6773 6.56818 41.4939C6.09941 41.1667 6.17442 40.4715 6.36192 39.8581C6.54943 39.2446 7.03695 38.2631 7.69322 38.1404C7.98739 38.1046 8.28516 38.1452 8.56218 38.2589C8.83919 38.3726 9.08758 38.5562 9.28703 38.7948C9.4787 38.9703 9.61619 39.2059 9.68079 39.4695C9.9433 40.267 9.38078 40.9214 8.64951 41.3303H8.5745Z" fill="#EC1414"/>
<path d="M31.4503 26.853C30.6815 26.1374 30.6815 25.6875 28.6565 25.6875C27.8973 25.8153 27.1903 26.1871 26.6258 26.7553C26.0613 27.3235 25.6651 28.0623 25.4876 28.8774C25.3027 29.4977 25.299 30.1653 25.4771 30.788C25.6551 31.4107 26.006 31.9577 26.4814 32.3536C27.1235 32.7679 27.8644 32.964 28.6093 32.9166C29.3542 32.8692 30.0691 32.5807 30.6628 32.0878C31.301 31.6919 31.7981 31.0728 32.0737 30.3307C32.3493 29.5886 32.3873 28.7667 32.1816 27.9981C32.0341 27.5531 31.7819 27.1582 31.4503 26.853ZM29.5752 30.3497C29.2896 30.582 28.9492 30.7208 28.5939 30.7498C28.2386 30.7787 27.883 30.6967 27.5689 30.5133C27.1002 30.1861 27.1752 29.4704 27.3627 28.857C27.5502 28.2435 28.0377 27.262 28.694 27.1598C29.1236 27.0828 29.5644 27.1713 29.9408 27.4101C30.3171 27.6489 30.6055 28.0231 30.7565 28.4684C30.944 29.2864 30.3253 29.9203 29.6503 30.3497H29.5752Z" fill="#EC1414"/>
<path d="M20.3498 37.5679C19.6185 36.8931 19.6185 36.4023 17.5559 36.4023C16.7909 36.5138 16.0761 36.88 15.509 37.4509C14.9418 38.0218 14.5501 38.7696 14.3871 39.5922C14.1993 40.2123 14.1942 40.8809 14.3724 41.5042C14.5507 42.1276 14.9033 42.6746 15.3808 43.0684C16.0248 43.4799 16.7667 43.6724 17.5116 43.6214C18.2565 43.5705 18.9705 43.2782 19.5623 42.7822C20.2005 42.3863 20.6975 41.7672 20.9732 41.0251C21.2488 40.283 21.2868 39.4611 21.0811 38.6925C20.9307 38.2549 20.6787 37.8674 20.3498 37.5679ZM18.4747 41.0645C18.1891 41.2968 17.8487 41.4356 17.4934 41.4646C17.138 41.4936 16.7825 41.4115 16.4684 41.2281C15.9809 40.9009 16.0746 40.1852 16.2621 39.5718C16.4496 38.9584 16.9372 37.9768 17.5934 37.8746C17.8861 37.8362 18.1829 37.8736 18.4598 37.9837C18.7368 38.0939 18.986 38.2737 19.1872 38.5085C19.3789 38.684 19.5164 38.9196 19.581 39.1833C19.8248 40.0012 19.2247 40.7373 18.5497 41.0645H18.4747Z" fill="#EC1414"/>
<path d="M39.9443 27.0575C39.213 26.3623 39.1942 25.892 37.1504 25.892C36.3854 26.0034 35.6706 26.3696 35.1035 26.9405C34.5363 27.5114 34.1445 28.2592 33.9815 29.0819C33.7938 29.7019 33.7887 30.3705 33.9669 30.9939C34.1451 31.6172 34.4977 32.1642 34.9753 32.5581C35.6175 32.9724 36.3584 33.1684 37.1032 33.1211C37.8481 33.0737 38.5631 32.7851 39.1567 32.2922C39.7949 31.8963 40.292 31.2773 40.5676 30.5352C40.8433 29.793 40.8813 28.9712 40.6755 28.2026C40.528 27.7576 40.2758 27.3627 39.9443 27.0575ZM38.0692 30.5541C37.7836 30.7865 37.4432 30.9253 37.0879 30.9542C36.7325 30.9832 36.377 30.9012 36.0629 30.7177C35.5754 30.3906 35.6691 29.6749 35.8566 29.0614C36.0441 28.448 36.5316 27.4665 37.1879 27.3642C37.6058 27.3072 38.0292 27.4053 38.3898 27.6427C38.7503 27.8802 39.0271 28.243 39.1755 28.6729C39.3817 29.4908 38.8192 30.1247 38.1442 30.5132L38.0692 30.5541Z" fill="#EC1414"/>
<path d="M27.2876 36.6476C26.5308 36.7739 25.8255 37.1427 25.2613 37.707C24.6971 38.2713 24.2994 39.0057 24.1187 39.817C23.9324 40.4404 23.9279 41.1114 24.1059 41.7376C24.2839 42.3639 24.6355 42.9145 25.1125 43.3137C25.7605 43.7076 26.498 43.8919 27.2387 43.8448C27.9793 43.7977 28.6923 43.5213 29.2939 43.0478C29.9321 42.652 30.4292 42.0329 30.7048 41.2908C30.9804 40.5486 31.0184 39.7268 30.8127 38.9582C30.5208 38.2192 30.0236 37.5987 29.3912 37.1841C28.7587 36.7696 28.023 36.5819 27.2876 36.6476ZM28.2813 41.2893C27.9957 41.5216 27.6553 41.6604 27.3 41.6894C26.9447 41.7184 26.5891 41.6363 26.275 41.4529C25.8063 41.1257 25.8813 40.4305 26.0688 39.7966C26.2563 39.1627 26.7625 38.2221 27.4001 38.0994C27.6927 38.061 27.9895 38.0984 28.2665 38.2085C28.5434 38.3187 28.7926 38.4985 28.9939 38.7333C29.1821 38.9121 29.3188 39.1464 29.3876 39.4081C29.5751 40.1647 28.9564 40.7372 28.2813 41.228V41.2893Z" fill="#EC1414"/>
<path d="M29.5565 11.8441C29.3447 13.3945 29.4996 14.9782 30.0065 16.445C30.3454 17.1641 30.9137 17.7233 31.6045 18.0171C32.2953 18.3108 33.0607 18.319 33.7566 18.0399C34.23 17.9149 34.667 17.6621 35.0274 17.3048C35.3878 16.9475 35.66 16.4971 35.8192 15.9951C36.1258 14.8477 36.2402 13.6493 36.1567 12.4576V11.7623V9.47215C36.1847 9.0194 36.1221 8.56543 35.9731 8.14172C35.8242 7.71801 35.5925 7.3347 35.2942 7.01838C34.2946 6.27887 33.0753 5.97935 31.8815 6.18001C31.8012 6.17727 31.7211 6.19217 31.6462 6.22382C31.5712 6.25548 31.5028 6.30324 31.4451 6.36428C31.3874 6.42531 31.3415 6.49838 31.3102 6.57913C31.2788 6.65988 31.2627 6.74667 31.2628 6.83435C31.2168 6.70826 31.1312 6.60409 31.0213 6.54042C30.9114 6.47675 30.7843 6.45772 30.6627 6.48673C30.5402 6.52416 30.428 6.5942 30.3364 6.69056C30.2447 6.78692 30.1765 6.90659 30.1377 7.03883C30.026 7.75451 29.982 8.48083 30.0065 9.20633L29.744 10.4537C29.6462 10.9107 29.5835 11.3758 29.5565 11.8441ZM31.1128 11.0058C31.1128 11.0058 31.4128 7.20241 31.4128 7.05928C31.4601 7.1796 31.5384 7.28233 31.6383 7.35494C31.7382 7.42756 31.8553 7.46692 31.9753 7.46824C33.6629 7.46824 34.3754 7.81586 34.5629 8.53154C34.6238 9.83255 34.5419 11.1368 34.3191 12.4167C34.3242 13.2083 34.2424 13.9978 34.0754 14.7682C33.9441 15.259 33.7754 15.7497 33.3066 15.8724C33.1236 15.9628 32.9245 16.0075 32.7237 16.0033C32.5229 15.9991 32.3254 15.9461 32.1458 15.8481C31.9662 15.7502 31.8088 15.6098 31.6852 15.4371C31.5617 15.2644 31.475 15.0638 31.4315 14.85C31.1335 13.5962 31.0258 12.2976 31.1128 11.0058Z" fill="#EC1414"/>
<path d="M16.0371 11.2103C16.0371 11.4148 16.1683 11.6193 16.8996 11.7011C17.9496 11.7011 18.3997 12.0691 19.8435 12.1509H22.2061H24.5499C25.8437 12.1509 26.6312 12.0282 27.9438 11.926C28.5625 11.926 29.0501 10.6173 28.225 10.3924C26.8 10.3311 25.8249 10.0652 24.3811 10.0652H20.631C19.4715 10.0611 18.313 10.1362 17.1621 10.2902C16.3746 10.3515 16.0183 10.9036 16.0371 11.2103Z" fill="#EC1414"/>
<path d="M43.1319 12.253C42.4991 11.5023 41.6661 10.9873 40.7505 10.7807C39.8828 10.5304 38.9838 10.4338 38.0879 10.4944C36.7566 10.6989 37.1129 11.7009 37.8067 11.7009C38.4349 11.694 39.0625 11.7488 39.6817 11.8645C40.6171 11.9373 41.4934 12.3896 42.1381 13.1322C42.575 14.088 42.8241 15.1327 42.8694 16.1995C43.0569 17.7944 43.2069 19.8597 43.3006 22.1294C40.5443 22.1294 35.0128 21.884 28.8063 21.7613H22.4499H16.0934C9.38062 21.8227 3.54916 22.0681 1.71159 22.1499C1.69969 19.0648 1.98883 15.987 2.57412 12.9687C2.75858 12.5994 3.02902 12.2897 3.35821 12.0707C3.6874 11.8517 4.0637 11.7312 4.44919 11.7213C5.22796 11.5147 6.03005 11.432 6.83053 11.4759C6.93652 11.4561 7.03395 11.3999 7.10869 11.3155C7.18344 11.2312 7.23161 11.1231 7.24624 11.0069C7.26086 10.8907 7.24117 10.7725 7.19003 10.6693C7.13889 10.5661 7.05894 10.4834 6.96178 10.4331C5.80021 10.1587 4.59823 10.1587 3.43666 10.4331C2.97655 10.5538 2.54798 10.788 2.1839 11.1177C1.81982 11.4474 1.52995 11.8638 1.33658 12.3348C0.605301 14.216 -0.144727 24.6036 0.0240296 33.8053C0.155284 40.4918 0.886562 46.4831 2.23661 48.2825C3.2304 49.5912 5.81799 50.3273 9.08061 50.6136C14.1621 50.9817 20.9123 50.3682 24.3999 50.3682C28.7798 50.5195 33.1641 50.3624 37.5254 49.8979C39.4915 49.7117 41.4038 49.1 43.1506 48.0985C43.6594 47.6281 43.9983 46.9759 44.1069 46.2582C44.7745 42.0591 45.0759 37.8005 45.0069 33.5395C45.0069 24.3787 44.3132 13.7661 43.1319 12.253ZM42.6631 43.8657C42.5586 44.7631 42.3507 45.6425 42.0443 46.4831C39.946 47.4409 37.6997 47.9544 35.4253 47.9963C31.0377 48.3848 26.2 48.2007 24.3999 48.2007C20.9498 48.2007 14.2558 48.8346 9.21187 48.5075C6.62427 48.3439 4.48669 48.0576 3.69917 47.0352C2.42412 45.4198 1.88035 39.9193 1.71159 33.8462C1.58694 30.3511 1.57443 26.8523 1.67409 23.3563C3.54916 23.3563 9.26812 23.6835 16.0934 23.8266H22.4499H28.8063C35.0503 23.7039 40.6005 23.5199 43.3381 23.4381C43.3381 25.4829 43.4319 27.7935 43.3381 30.0428C43.3757 34.6613 43.1503 39.2778 42.6631 43.8657Z" fill="#EC1414"/>
<path d="M8.40565 11.7828C8.26134 13.4201 8.40777 15.0725 8.83692 16.6494C9.17581 17.3686 9.7442 17.9277 10.435 18.2215C11.1257 18.5153 11.8912 18.5234 12.5871 18.2444C13.0646 18.1242 13.5062 17.8734 13.8703 17.5157C14.2345 17.1579 14.5091 16.705 14.6684 16.1996C14.9873 15.0408 15.1018 13.8265 15.0059 12.6212V10.4537V9.63573C15.0314 9.18325 14.9676 8.73006 14.8188 8.30676C14.67 7.88346 14.4397 7.4999 14.1434 7.18195C13.1471 6.4334 11.927 6.12634 10.7307 6.32313C10.5666 6.32313 10.4092 6.39423 10.2932 6.52077C10.1772 6.64732 10.112 6.81896 10.112 6.99792C10.066 6.87183 9.98037 6.76766 9.87047 6.704C9.76057 6.64033 9.63351 6.6213 9.51195 6.6503C9.38936 6.68773 9.27721 6.75777 9.18558 6.85413C9.09394 6.9505 9.02568 7.07017 8.98693 7.2024C8.84615 7.87399 8.76453 8.5587 8.74317 9.24721L8.53691 10.331V10.8626L8.40565 11.7828ZM9.94321 11.1898C9.94321 11.1898 10.2432 7.40688 10.2432 7.2433C10.2854 7.36904 10.362 7.47764 10.4626 7.55443C10.5632 7.63121 10.683 7.6725 10.8057 7.67271C12.4933 7.67271 13.2058 8.02033 13.3933 8.73601C13.4481 10.0378 13.3599 11.3421 13.1308 12.6212C13.1325 13.4126 13.0507 14.2016 12.8871 14.9727C12.7746 15.443 12.6058 15.9337 12.137 16.0564C11.9541 16.1468 11.7549 16.1915 11.5541 16.1873C11.3533 16.1831 11.1559 16.1301 10.9763 16.0322C10.7966 15.9342 10.6393 15.7938 10.5157 15.6211C10.3921 15.4484 10.3054 15.2479 10.262 15.034C9.96053 13.7808 9.8528 12.4816 9.94321 11.1898Z" fill="#EC1414"/>
</g>
<defs>
<filter id="filter0_b_7962_1333" x="-4" y="2.11914" width="53.0166" height="52.6121" filterUnits="userSpaceOnUse" color-interpolation-filters="sRGB">
<feFlood flood-opacity="0" result="BackgroundImageFix"/>
<feGaussianBlur in="BackgroundImageFix" stdDeviation="2"/>
<feComposite in2="SourceAlpha" operator="in" result="effect1_backgroundBlur_7962_1333"/>
<feBlend mode="normal" in="SourceGraphic" in2="effect1_backgroundBlur_7962_1333" result="shape"/>
</filter>
</defs>
</svg>
