<svg width="50" height="52" viewBox="0 0 50 52" fill="none" xmlns="http://www.w3.org/2000/svg">
<rect x="6" y="0.910645" width="44" height="44.6122" rx="15" fill="#FF6200" fill-opacity="0.16"/>
<g clip-path="url(#clip0_7962_1350)">
<path fill-rule="evenodd" clip-rule="evenodd" d="M43.9999 34.1799C43.3596 32.8806 42.5854 31.6517 41.6899 30.5132C41.0104 29.671 40.1085 29.0359 39.0866 28.6799C38.5815 28.5591 38.0518 28.591 37.5649 28.7716C36.8499 28.9916 35.9882 29.4132 35.2182 29.6882C34.4482 29.9632 34.0999 29.5782 33.8066 29.1932C33.2199 28.3866 32.7616 27.3599 32.2482 26.6816C31.4974 25.6454 30.4939 24.8186 29.3332 24.2799C28.9559 24.1435 28.553 24.0925 28.1535 24.1305C27.7541 24.1686 27.368 24.2947 27.0232 24.4999C26.3854 24.8445 25.9058 25.4227 25.6849 26.1132C25.4122 27.0067 25.4642 27.9677 25.8316 28.8266C26.1347 29.5101 26.5161 30.156 26.9682 30.7516C27.9357 31.8749 28.8415 33.05 29.6816 34.2716C29.9199 34.6566 30.1766 35.0416 30.3966 35.4449C29.6956 35.0994 28.9575 34.8349 28.1966 34.6566C27.6915 34.5652 27.1711 34.6159 26.6932 34.8032C26.3725 34.9417 26.0937 35.1619 25.8846 35.4418C25.6755 35.7216 25.5434 36.0514 25.5016 36.3982C25.4663 37.5062 25.7666 38.599 26.3632 39.5332C26.9178 40.3501 27.6595 41.0227 28.5266 41.4949C30.2499 42.4482 32.3032 42.5032 34.3382 43.3282C34.4081 43.3774 34.488 43.4107 34.5721 43.4258C34.6562 43.4409 34.7426 43.4374 34.8253 43.4157C34.9079 43.3939 34.9848 43.3543 35.0506 43.2997C35.1163 43.2451 35.1693 43.1768 35.2059 43.0995C35.2425 43.0223 35.2618 42.938 35.2624 42.8525C35.263 42.767 35.2449 42.6825 35.2094 42.6047C35.1739 42.527 35.1218 42.4579 35.0569 42.4024C34.9919 42.3468 34.9156 42.3062 34.8332 42.2832C33.1649 41.4399 31.4416 41.2016 29.9382 40.4499C29.0133 40.0418 28.2381 39.3563 27.7199 38.4882C27.5193 38.1344 27.377 37.7506 27.2982 37.3516C27.2816 37.1319 27.2816 36.9113 27.2982 36.6916C27.2982 36.5816 27.2982 36.4532 27.4082 36.4166C27.8493 36.3514 28.299 36.4491 28.6732 36.6916C29.2966 36.9666 29.9566 37.3149 30.5066 37.5349C30.9343 37.6979 31.3872 37.7847 31.8449 37.7916C32.1225 37.7919 32.3896 37.6855 32.5909 37.4944C32.7923 37.3033 32.9124 37.0421 32.9266 36.7649C32.9253 36.3522 32.8823 35.9406 32.7982 35.5366C32.6983 35.1354 32.5506 34.7476 32.3582 34.3816C32.1199 33.9232 31.8449 33.4832 31.6066 33.0432C30.7305 31.7675 29.7817 30.5433 28.7649 29.3766C28.4172 28.9224 28.122 28.4304 27.8849 27.9099C27.7485 27.6054 27.6978 27.2694 27.7382 26.9382C27.748 26.83 27.7829 26.7256 27.8402 26.6333C27.8975 26.541 27.9756 26.4633 28.0682 26.4066C28.3982 26.2049 28.7466 26.4066 29.0582 26.6449C29.5929 27.0598 30.0733 27.5403 30.4882 28.0749C31.0199 28.7349 31.5332 29.7249 32.1382 30.5132C32.456 30.933 32.8399 31.2983 33.2749 31.5949C33.5495 31.7555 33.8562 31.8536 34.1731 31.8821C34.49 31.9106 34.8093 31.8689 35.1082 31.7599C35.9337 31.4637 36.7416 31.1209 37.5282 30.7332C37.9499 30.5499 38.2982 30.3116 38.5549 30.3849C39.3106 30.6034 39.99 31.0288 40.5166 31.6132C41.3827 32.6213 42.1444 33.7147 42.7899 34.8766C42.8926 35.0009 43.0362 35.0845 43.195 35.1126C43.3538 35.1406 43.5173 35.1111 43.6564 35.0295C43.7954 34.9478 43.9008 34.8193 43.9537 34.667C44.0066 34.5147 44.0034 34.3485 43.9449 34.1982L43.9999 34.1799Z" fill="#FF6200"/>
<path fill-rule="evenodd" clip-rule="evenodd" d="M11.2567 23.1067C11.3234 23.0674 11.3814 23.0148 11.4272 22.9523C11.4729 22.8897 11.5053 22.8185 11.5225 22.7429C11.5396 22.6674 11.5412 22.5891 11.527 22.5129C11.5128 22.4368 11.4832 22.3643 11.44 22.3C11.3536 22.1678 11.219 22.0747 11.0648 22.0404C10.9107 22.0062 10.7492 22.0335 10.615 22.1167L8.67167 23.4C8.25001 23.7117 7.48001 24.0783 6.83834 24.5183C6.50216 24.79 6.21665 25.1189 5.99501 25.49C5.90343 25.685 5.85596 25.8979 5.85596 26.1133C5.85596 26.3288 5.90343 26.5416 5.99501 26.7367C6.27343 27.2855 6.65284 27.7768 7.11334 28.185C7.50552 28.4924 7.92963 28.7567 8.37834 28.9733C9.27667 29.4133 10.2117 29.6883 11.1467 30.0917C11.2969 30.1502 11.4631 30.1533 11.6154 30.1005C11.7677 30.0476 11.8962 29.9422 11.9779 29.8032C12.0596 29.6641 12.089 29.5006 12.061 29.3418C12.033 29.183 11.9493 29.0394 11.825 28.9367C11.1467 28.4417 10.395 28.02 9.69834 27.5433C9.30146 27.2692 8.94373 26.9423 8.63501 26.5717C8.52506 26.5005 8.42086 26.4208 8.32334 26.3333L9.86334 24.6833L11.2567 23.1067Z" fill="#FF6200"/>
<path fill-rule="evenodd" clip-rule="evenodd" d="M16.28 20.0999C15.675 21.2733 14.9967 22.3916 14.4467 23.5833C14.2031 24.09 13.9889 24.6103 13.805 25.1416C13.6034 25.6549 13.4384 26.2049 13.2734 26.7366C12.9067 28.0199 12.65 29.3216 12.3934 30.6049C12.3648 30.7671 12.3961 30.9341 12.4816 31.0749C12.5671 31.2156 12.7009 31.3205 12.858 31.3698C13.0151 31.4192 13.1848 31.4098 13.3354 31.3432C13.4861 31.2767 13.6074 31.1576 13.6767 31.0083C14.19 29.7799 14.795 28.6066 15.3267 27.3416C15.675 26.5349 16.0234 25.7099 16.2984 24.8666C16.775 23.4183 17.05 21.9699 17.4167 20.5033C17.466 20.3546 17.4575 20.1929 17.3929 20.0502C17.3284 19.9075 17.2125 19.7944 17.0684 19.7333C16.9926 19.7042 16.9118 19.6907 16.8308 19.6935C16.7497 19.6963 16.67 19.7153 16.5965 19.7495C16.523 19.7838 16.457 19.8324 16.4027 19.8926C16.3483 19.9528 16.3066 20.0233 16.28 20.0999Z" fill="#FF6200"/>
<path fill-rule="evenodd" clip-rule="evenodd" d="M20.6249 26.4433L19.7266 27.4883L18.1316 29.0833C17.9843 29.1837 17.8824 29.3382 17.8481 29.5132C17.8138 29.6882 17.8498 29.8696 17.9483 30.0183C17.9949 30.0921 18.0557 30.1559 18.1271 30.2061C18.1986 30.2562 18.2792 30.2917 18.3645 30.3105C18.4497 30.3292 18.5379 30.3309 18.6238 30.3153C18.7097 30.2998 18.7916 30.2674 18.8649 30.2199L20.9366 28.8449L22.1466 27.9283C22.5547 27.5646 22.9234 27.1591 23.2466 26.7183C23.5444 26.3382 23.7457 25.8915 23.8333 25.4166C23.8389 25.2451 23.8074 25.0744 23.7409 24.9162C23.6745 24.758 23.5746 24.616 23.4483 24.4999C23.1517 24.216 22.826 23.964 22.4766 23.7483C21.8843 23.39 21.2722 23.0656 20.6433 22.7766C20.0463 22.4982 19.4342 22.2533 18.8099 22.0433C18.6661 21.9804 18.5035 21.9758 18.3564 22.0305C18.2093 22.0853 18.0893 22.195 18.0216 22.3366C17.9587 22.4804 17.9541 22.643 18.0088 22.7901C18.0636 22.9372 18.1733 23.0573 18.3149 23.1249C18.827 23.4462 19.317 23.8015 19.7816 24.1883C20.2415 24.5693 20.6762 24.9796 21.0833 25.4166C21.3216 25.5266 21.6516 25.2699 20.6249 26.4433Z" fill="#FF6200"/>
<path fill-rule="evenodd" clip-rule="evenodd" d="M23.7049 12.5466C24.2549 12.6566 25.0799 11.0616 25.0799 11.025C25.1588 10.8781 25.2027 10.715 25.2082 10.5483C25.2265 10.3777 25.2265 10.2056 25.2082 10.035C25.0065 8.01829 24.4749 8.20163 24.2915 8.09163C24.1082 7.98163 23.6865 8.09163 23.1182 9.75996C23.0447 9.89727 22.9951 10.046 22.9715 10.2C22.9529 10.3583 22.9529 10.5183 22.9715 10.6766C22.9715 10.6766 23.1732 12.455 23.7049 12.5466Z" fill="#FF6200"/>
<path fill-rule="evenodd" clip-rule="evenodd" d="M31.7899 15.205C31.9706 15.0911 32.1368 14.9556 32.2849 14.8017C32.4342 14.656 32.5693 14.4964 32.6882 14.325C34.0265 12.62 33.9165 12.4917 33.6782 12.1067C33.4399 11.7217 32.9999 11.6667 31.2582 12.7483C31.0674 12.8723 30.8838 13.007 30.7082 13.1517C30.5518 13.3142 30.4049 13.4856 30.2682 13.665C29.0215 15.4983 29.3882 15.8283 29.5349 15.975C29.6815 16.1217 29.9565 16.4517 31.7899 15.205Z" fill="#FF6200"/>
<path fill-rule="evenodd" clip-rule="evenodd" d="M32.1567 19.8616C32.2667 20.5583 34.7967 20.5216 34.8517 20.5216C35.2178 20.4883 35.5799 20.4208 35.9334 20.3199C38.1334 19.7699 38.225 19.6049 38.225 19.1833C38.225 18.7616 37.8767 18.2849 35.7317 18.1749C35.4758 18.1479 35.2177 18.1479 34.9617 18.1749C34.7137 18.2124 34.4686 18.2676 34.2284 18.3399C32.01 19.2199 32.12 19.6233 32.1567 19.8616Z" fill="#FF6200"/>
<path d="M8.70828 41.5316C8.63122 41.534 8.55539 41.5515 8.48512 41.5832C8.41484 41.6149 8.35151 41.6601 8.29872 41.7163C8.24594 41.7725 8.20475 41.8385 8.17751 41.9106C8.15026 41.9828 8.1375 42.0595 8.13994 42.1366C8.13994 44.9783 8.13994 45.1983 8.92828 45.8033C9.46155 46.2369 10.0897 46.5384 10.7616 46.6833C10.7188 47.6257 10.9643 48.5587 11.4655 49.358C11.9667 50.1573 12.6996 50.7847 13.5666 51.1566C14.3522 51.5253 15.1958 51.7548 16.0599 51.8349C16.9076 51.9124 17.7623 51.8505 18.5899 51.6516C19.6218 51.4909 20.5825 51.0267 21.3497 50.3183C22.117 49.6098 22.656 48.6891 22.8983 47.6733C22.9353 47.5834 22.9527 47.4865 22.949 47.3894C22.9454 47.2922 22.9209 47.1969 22.8773 47.1101C22.8336 47.0232 22.7718 46.9467 22.696 46.8858C22.6202 46.8249 22.5321 46.781 22.4379 46.7571C22.3436 46.7332 22.2453 46.7299 22.1497 46.7473C22.054 46.7647 21.9632 46.8025 21.8834 46.8581C21.8036 46.9137 21.7367 46.9858 21.6872 47.0695C21.6377 47.1532 21.6068 47.2466 21.5966 47.3433C21.2987 47.9957 20.822 48.5505 20.2217 48.9431C19.6214 49.3357 18.9221 49.5502 18.2049 49.5616C17.5956 49.6282 16.9809 49.6282 16.3716 49.5616C15.7451 49.4993 15.129 49.3576 14.5383 49.1399C13.9949 48.9976 13.4956 48.7218 13.0858 48.3376C12.676 47.9535 12.3687 47.473 12.1916 46.9399L12.7049 47.0499C14.6207 47.4028 16.5717 47.5259 18.5166 47.4166C19.8583 47.3176 21.176 47.0083 22.4216 46.4999L23.9249 45.5833C24.1072 45.4433 24.2732 45.2834 24.4199 45.1066C24.5825 44.9235 24.7296 44.7272 24.8599 44.5199C25.2223 44.085 25.4208 43.5369 25.4208 42.9708C25.4208 42.4047 25.2223 41.8565 24.8599 41.4216C24.6158 41.1552 24.3235 40.9375 23.9983 40.7799C22.5988 40.3812 21.1434 40.214 19.6899 40.2849L15.4733 40.6333C13.8966 40.8166 12.3199 41.1099 10.7249 41.3116L8.70828 41.5316ZM9.78994 43.3649L10.1933 42.5949L15.6933 42.3199H19.8366C20.7918 42.2878 21.747 42.3802 22.6783 42.5949C22.8825 42.6369 23.0722 42.7317 23.2283 42.8699C23.1798 43.013 23.112 43.1487 23.0266 43.2733L22.6233 43.7499L21.6149 44.3549C20.3069 44.9409 18.9027 45.2826 17.4716 45.3633C15.928 45.4944 14.3758 45.4883 12.8333 45.3449C11.8196 45.3721 10.8158 45.1386 9.91828 44.6666C9.62494 44.4283 9.55161 44.0249 9.78994 43.4016V43.3649Z" fill="#FF6200"/>
<path d="M24.4199 39.3499C24.7499 37.5166 24.5299 37.5166 24.2183 37.3333C23.9066 37.1499 23.4849 37.4983 22.3849 39.0749C22.3493 39.158 22.3064 39.2378 22.2566 39.3133C22.2566 39.8999 24.0899 40.5049 24.3649 39.8999L24.4199 39.3499Z" fill="#FF6200"/>
<path d="M28.5266 19.8433C28.0805 18.4576 27.307 17.1998 26.2716 16.1766C25.2765 15.1934 24.1394 14.3653 22.8983 13.7199C20.9075 12.7122 18.7294 12.1283 16.5016 12.0053C14.2737 11.8822 12.0445 12.2226 9.95493 13.0049C7.80666 13.7281 5.84555 14.9188 4.21289 16.4913C2.58023 18.0637 1.31668 19.9787 0.513265 22.0983C-0.136909 24.1877 -0.136909 26.4255 0.513265 28.5149C1.1312 30.5336 2.15426 32.405 3.51993 34.0149C4.34493 34.9866 5.35327 35.8483 6.1966 36.7283C6.55557 37.0875 6.88654 37.4736 7.1866 37.8833C7.67602 38.5297 8.08825 39.2312 8.41493 39.9733C8.41493 40.1199 8.52493 40.2849 8.59826 40.4499C8.74493 41.1099 9.9366 40.8716 9.95493 40.3583C9.97326 39.8449 9.75327 39.7533 9.62493 39.4599C9.28788 38.6176 8.86392 37.8127 8.35993 37.0583C8.05198 36.5637 7.70888 36.0919 7.33326 35.6466C6.54493 34.7116 5.62826 33.8133 4.8766 32.8783C3.75868 31.4249 2.94783 29.7596 2.49327 27.9833C2.05206 26.2886 2.12869 24.5006 2.71326 22.8499C3.41323 21.0486 4.49758 19.4215 5.89076 18.0822C7.28394 16.7428 8.95242 15.7234 10.7799 15.0949C12.5951 14.3762 14.5354 14.027 16.4873 14.0679C18.4391 14.1088 20.3632 14.539 22.1466 15.3333C23.2647 15.877 24.3014 16.5743 25.2266 17.4049C26.1204 18.1923 26.8173 19.1781 27.2616 20.2833C27.3201 20.4492 27.4407 20.5859 27.598 20.6646C27.7554 20.7433 27.9371 20.7577 28.1049 20.7049C28.1907 20.6782 28.27 20.6343 28.3382 20.5758C28.4064 20.5174 28.4619 20.4456 28.5014 20.3649C28.5408 20.2843 28.5634 20.1964 28.5678 20.1067C28.5721 20.017 28.5581 19.9274 28.5266 19.8433Z" fill="#FF6200"/>
</g>
<defs>
<clipPath id="clip0_7962_1350">
<rect width="44" height="44" fill="white" transform="translate(0 8)"/>
</clipPath>
</defs>
</svg>
