<svg width="50" height="52" viewBox="0 0 50 52" fill="none" xmlns="http://www.w3.org/2000/svg">
<rect x="6" y="0.896484" width="44" height="44.6122" rx="15" fill="#0066FF" fill-opacity="0.16"/>
<g clip-path="url(#clip0_7962_1299)">
<path fill-rule="evenodd" clip-rule="evenodd" d="M27.0967 28.6614C27.1716 28.6524 27.2439 28.6285 27.3095 28.5912C27.3751 28.554 27.4326 28.504 27.4786 28.4443C27.5247 28.3846 27.5584 28.3163 27.5778 28.2434C27.5972 28.1705 27.6019 28.0945 27.5917 28.0197C27.5865 27.1633 27.8423 26.3256 28.325 25.6181C28.7835 24.9286 29.2986 24.2786 29.865 23.6747C30.6882 22.7227 31.5635 21.8168 32.4867 20.9614C33.0473 21.0855 33.6179 21.1592 34.1917 21.1814C34.3089 21.1589 34.4147 21.0963 34.4907 21.0043C34.5668 20.9123 34.6084 20.7966 34.6084 20.6772C34.6084 20.5578 34.5668 20.4422 34.4907 20.3502C34.4147 20.2581 34.3089 20.1955 34.1917 20.1731C30.9283 19.8431 29.4983 17.7164 29.6817 15.6081C29.8245 14.4468 30.413 13.3865 31.3229 12.6511C32.2328 11.9156 33.393 11.5625 34.5583 11.6664C35.6096 11.6462 36.6273 12.0374 37.3944 12.7565C38.1615 13.4757 38.6174 14.466 38.665 15.5164C38.7716 16.0557 38.7708 16.6108 38.6626 17.1499C38.5544 17.6889 38.3409 18.2013 38.0344 18.6577C37.7278 19.1141 37.3343 19.5056 36.8762 19.8096C36.4182 20.1137 35.9046 20.3244 35.365 20.4297C35.2143 20.4492 35.0774 20.5277 34.9846 20.648C34.8918 20.7684 34.8506 20.9207 34.87 21.0714C34.8895 21.2221 34.968 21.359 35.0883 21.4518C35.2087 21.5446 35.3609 21.5858 35.5117 21.5664C36.1515 21.5098 36.7742 21.3292 37.345 21.0347C37.7991 21.5435 38.21 22.0893 38.5733 22.6664C38.7933 22.9964 38.995 23.3264 39.1783 23.6564C39.38 24.0047 39.5817 24.3531 39.765 24.7014C40.2101 25.568 40.5841 26.4693 40.8833 27.3964C40.8964 27.4693 40.9241 27.5388 40.9647 27.6008C41.0053 27.6628 41.058 27.7159 41.1196 27.757C41.1813 27.7981 41.2506 27.8263 41.3234 27.8399C41.3962 27.8536 41.471 27.8524 41.5433 27.8364C41.6916 27.8096 41.8232 27.725 41.9091 27.6013C41.9951 27.4775 42.0284 27.3247 42.0017 27.1764C41.9412 26.1001 41.7503 25.0351 41.4333 24.0047C41.3037 23.5411 41.1255 23.0925 40.9017 22.6664C40.6599 22.2485 40.3774 21.8555 40.0583 21.4931C39.5912 21.0213 39.0678 20.6088 38.5 20.2647C39.1477 19.6268 39.6475 18.8546 39.9643 18.0025C40.281 17.1504 40.407 16.2391 40.3333 15.3331C40.3262 14.5764 40.1694 13.8285 39.8721 13.1327C39.5748 12.4368 39.1427 11.8066 38.6009 11.2784C38.059 10.7501 37.418 10.3343 36.7148 10.0548C36.0115 9.77526 35.26 9.6376 34.5033 9.64973C32.8822 9.59938 31.3056 10.1847 30.1102 11.2809C28.9147 12.377 28.1951 13.897 28.105 15.5164C28.0752 16.5529 28.3492 17.5754 28.8932 18.4582C29.4372 19.3409 30.2274 20.0454 31.1667 20.4847C30.3861 20.8917 29.649 21.3769 28.9667 21.9331C28.3155 22.4857 27.7528 23.1349 27.2983 23.8581C26.8753 24.4826 26.5826 25.186 26.4377 25.9263C26.2928 26.6666 26.2987 27.4285 26.455 28.1664C26.4615 28.2423 26.4837 28.316 26.5202 28.3829C26.5567 28.4498 26.6067 28.5084 26.667 28.5549C26.7274 28.6014 26.7967 28.6349 26.8707 28.6533C26.9446 28.6716 27.0216 28.6744 27.0967 28.6614Z" fill="#0066FF"/>
<path fill-rule="evenodd" clip-rule="evenodd" d="M15.4366 44.318C15.2171 43.9096 14.9592 43.5228 14.6666 43.163C14.206 42.6684 13.6821 42.2369 13.1083 41.8797C13.752 41.2466 14.2497 40.4805 14.5663 39.635C14.883 38.7894 15.0111 37.8849 14.9416 36.9847C14.9396 36.2194 14.784 35.4623 14.484 34.7582C14.1841 34.0542 13.7459 33.4175 13.1954 32.8858C12.6449 32.3541 11.9934 31.9383 11.2793 31.663C10.5652 31.3877 9.80319 31.2585 9.03829 31.283C7.41765 31.223 5.8384 31.8027 4.64136 32.8968C3.44431 33.9909 2.72547 35.5119 2.63996 37.1314C2.60861 38.1659 2.87987 39.187 3.42046 40.0695C3.96106 40.9521 4.74749 41.6577 5.68329 42.0997C4.90274 42.5066 4.16561 42.9919 3.48329 43.548C2.83862 44.1021 2.28222 44.7512 1.83329 45.473C1.40785 46.0999 1.1138 46.8065 0.968858 47.5501C0.823917 48.2937 0.831094 49.0589 0.989956 49.7997C0.998795 49.874 1.0227 49.9457 1.06022 50.0105C1.09773 50.0752 1.14806 50.1316 1.20813 50.1762C1.26819 50.2209 1.33673 50.2528 1.40955 50.27C1.48237 50.2872 1.55793 50.2894 1.63162 50.2764C1.70651 50.2673 1.77885 50.2435 1.84443 50.2062C1.91001 50.169 1.96751 50.119 2.01358 50.0593C2.05966 49.9995 2.09338 49.9312 2.11279 49.8584C2.13219 49.7855 2.1369 49.7094 2.12662 49.6347C2.12149 48.7783 2.37728 47.9405 2.85996 47.233C3.31842 46.5436 3.83354 45.8936 4.39996 45.2897C5.22789 44.342 6.10288 43.4364 7.02162 42.5764C7.57897 42.7184 8.15148 42.7922 8.72662 42.7964C8.84388 42.7739 8.94964 42.7113 9.0257 42.6193C9.10177 42.5273 9.14338 42.4116 9.14338 42.2922C9.14338 42.1728 9.10177 42.0572 9.0257 41.9651C8.94964 41.8731 8.84388 41.8105 8.72662 41.788C5.49996 41.458 4.10662 39.3314 4.28996 37.223C4.41513 36.0485 4.99609 34.97 5.90798 34.2192C6.81987 33.4684 7.98991 33.1054 9.16662 33.208C10.2175 33.2077 11.2271 33.6175 11.9804 34.3502C12.7337 35.083 13.1713 36.0809 13.2 37.1314C13.4158 38.218 13.1913 39.3459 12.576 40.2672C11.9607 41.1885 11.0047 41.8278 9.91829 42.0447C9.84365 42.0531 9.77141 42.0762 9.70568 42.1125C9.63995 42.1489 9.58203 42.1978 9.53521 42.2565C9.48839 42.3153 9.4536 42.3827 9.43283 42.4548C9.41205 42.527 9.40569 42.6026 9.41412 42.6772C9.42255 42.7518 9.44559 42.8241 9.48194 42.8898C9.51829 42.9555 9.56722 43.0135 9.62596 43.0603C9.68469 43.1071 9.75207 43.1419 9.82425 43.1627C9.89642 43.1834 9.97199 43.1898 10.0466 43.1814C10.6864 43.1248 11.3091 42.9442 11.88 42.6497C12.3341 43.1585 12.7449 43.7043 13.1083 44.2814C13.3273 44.6068 13.5293 44.9433 13.7133 45.2897C13.915 45.6197 14.1166 45.968 14.3 46.3164C14.745 47.183 15.119 48.0843 15.4183 49.0114C15.4726 49.1263 15.5639 49.2197 15.6776 49.2766C15.7913 49.3336 15.9208 49.3507 16.0454 49.3254C16.1699 49.3 16.2824 49.2337 16.3648 49.1369C16.4473 49.04 16.4948 48.9184 16.5 48.7914C16.4395 47.7151 16.2486 46.6501 15.9316 45.6197C15.8083 45.1711 15.6425 44.7352 15.4366 44.318Z" fill="#0066FF"/>
<path fill-rule="evenodd" clip-rule="evenodd" d="M3.28164 26.8281C5.45858 28.3867 8.08518 29.1915 10.7616 29.1197C14.5226 29.0116 18.2745 28.6933 22 28.1664C22.0683 28.1643 22.1355 28.148 22.1973 28.1187C22.259 28.0893 22.314 28.0475 22.3588 27.9958C22.4036 27.9441 22.4372 27.8837 22.4575 27.8184C22.4777 27.7531 22.4843 27.6843 22.4766 27.6164C22.472 27.5513 22.4545 27.4878 22.4253 27.4295C22.396 27.3712 22.3555 27.3193 22.3061 27.2767C22.2567 27.2341 22.1994 27.2017 22.1374 27.1813C22.0754 27.161 22.01 27.1531 21.945 27.1581C18.2923 27.567 14.6204 27.7811 10.945 27.7997C8.61205 27.7865 6.34682 27.0143 4.49164 25.5997C3.60699 24.7502 2.91262 23.7226 2.45438 22.5849C1.99614 21.4472 1.78446 20.2253 1.83331 18.9997C1.71556 16.5568 2.51307 14.1577 4.06997 12.2714C5.15694 11.1941 6.59491 10.5435 8.12164 10.4381C9.72278 10.2523 11.3448 10.4795 12.8333 11.0981C13.5686 11.4003 14.2297 11.8585 14.7709 12.4408C15.3121 13.0232 15.7206 13.7159 15.9683 14.4714C16.8483 17.0014 16.6283 20.0631 17.655 22.5197C18.0789 23.5186 18.7548 24.3903 19.6166 25.0497C20.8142 25.9589 22.1197 26.7163 23.5033 27.3047C23.5706 27.3392 23.644 27.3599 23.7194 27.3656C23.7948 27.3714 23.8705 27.362 23.9422 27.3381C24.0139 27.3142 24.0801 27.2762 24.137 27.2264C24.1938 27.1766 24.2402 27.116 24.2733 27.0481C24.3186 26.9175 24.3179 26.7753 24.2712 26.6453C24.2245 26.5152 24.1347 26.405 24.0166 26.3331C22.7113 25.7481 21.4804 25.0096 20.35 24.1331C19.6812 23.5846 19.1584 22.8792 18.8283 22.0797C17.7833 18.9997 18.3333 15.3331 16.885 12.5647C16.1294 11.1886 14.9356 10.1045 13.4933 9.48472C11.7647 8.72652 9.87434 8.41146 7.99331 8.56806C5.99019 8.69638 4.09853 9.53495 2.65831 10.9331C0.792758 13.1939 -0.155955 16.0727 -2.7135e-05 18.9997C-0.0334311 20.4619 0.241532 21.9146 0.806955 23.2634C1.37238 24.6122 2.21558 25.8268 3.28164 26.8281Z" fill="#0066FF"/>
<path fill-rule="evenodd" clip-rule="evenodd" d="M41.3417 33.2997C39.9258 31.8985 38.0499 31.0582 36.0617 30.9347C34.1803 30.7686 32.2875 31.0841 30.5617 31.8514C29.1175 32.4592 27.9219 33.5384 27.17 34.9131C25.6483 37.6997 26.2717 41.4214 25.1533 44.3914C24.8178 45.2181 24.2748 45.9442 23.5767 46.4997C22.4468 47.3821 21.2159 48.1268 19.91 48.7181C19.7762 48.7886 19.6749 48.9081 19.627 49.0515C19.5792 49.195 19.5886 49.3514 19.6533 49.4881C19.7271 49.6187 19.8466 49.7173 19.9889 49.7647C20.1312 49.8121 20.286 49.805 20.4233 49.7447C21.804 49.1428 23.1086 48.3798 24.31 47.4714C25.167 46.8148 25.8422 45.9503 26.2717 44.9597C27.2983 42.4847 27.0783 39.4597 27.9583 36.8931C28.2046 36.1169 28.6202 35.4051 29.175 34.809C29.7298 34.213 30.4101 33.7476 31.1667 33.4464C32.64 32.8434 34.2418 32.6226 35.8233 32.8047C37.3501 32.9101 38.788 33.5608 39.875 34.6381C41.4415 36.5077 42.2581 38.8923 42.1667 41.3297C42.2304 42.5311 42.0451 43.7327 41.6224 44.859C41.1996 45.9853 40.5485 47.0121 39.71 47.8747C37.8531 49.2839 35.5877 50.0498 33.2567 50.0564C29.5807 50.0559 25.9078 49.8416 22.2567 49.4147C22.1824 49.4005 22.106 49.4029 22.0327 49.4216C21.9595 49.4404 21.8913 49.4751 21.833 49.5232C21.7748 49.5714 21.7279 49.6319 21.6957 49.7002C21.6635 49.7686 21.6468 49.8433 21.6468 49.9189C21.6468 49.9945 21.6635 50.0692 21.6957 50.1376C21.7279 50.206 21.7748 50.2664 21.833 50.3146C21.8913 50.3627 21.9595 50.3974 22.0327 50.4162C22.106 50.4349 22.1824 50.4373 22.2567 50.4231C25.9622 50.9786 29.6957 51.3275 33.44 51.4681C36.1165 51.5398 38.7431 50.7351 40.92 49.1764C41.9473 48.1596 42.7517 46.9402 43.2819 45.5955C43.8122 44.2509 44.0568 42.8107 44 41.3664C44.1632 38.4385 43.2136 35.557 41.3417 33.2997Z" fill="#0066FF"/>
<path fill-rule="evenodd" clip-rule="evenodd" d="M8.21326 16.4881H9.16659H10.1199H12.4116C12.5648 16.5124 12.7213 16.4749 12.8468 16.3838C12.9723 16.2926 13.0564 16.1554 13.0808 16.0022C13.1051 15.8491 13.0675 15.6925 12.9764 15.567C12.8853 15.4416 12.7481 15.3574 12.5949 15.3331C11.8249 15.0947 11.0733 14.8564 10.2849 14.6914C9.94681 14.6205 9.60343 14.5776 9.25826 14.5631C8.91047 14.5356 8.56105 14.5356 8.21326 14.5631C7.40213 14.674 6.60385 14.8644 5.82993 15.1314C5.76273 15.1497 5.70016 15.182 5.6463 15.2262C5.59243 15.2703 5.54849 15.3253 5.51735 15.3876C5.4862 15.4499 5.46855 15.5181 5.46555 15.5877C5.46255 15.6572 5.47426 15.7267 5.49993 15.7914C5.51821 15.9246 5.58797 16.0452 5.69424 16.1275C5.8005 16.2097 5.93479 16.2471 6.06826 16.2314C6.74659 16.2497 7.46159 16.4147 8.21326 16.4881Z" fill="#0066FF"/>
<path fill-rule="evenodd" clip-rule="evenodd" d="M31.5882 38.8914H33.8799H34.8332H35.7865C36.5382 38.8914 37.2532 38.6531 38.0415 38.6164C38.1124 38.6359 38.1867 38.6399 38.2593 38.6281C38.3318 38.6164 38.401 38.5892 38.4622 38.5484C38.5233 38.5076 38.575 38.4542 38.6137 38.3917C38.6524 38.3292 38.6773 38.2591 38.6865 38.1862C38.6958 38.1133 38.6893 38.0392 38.6675 37.969C38.6457 37.8988 38.609 37.8341 38.5601 37.7793C38.5111 37.7245 38.4509 37.6808 38.3836 37.6513C38.3163 37.6218 38.2434 37.607 38.1699 37.6081C37.3966 37.339 36.5981 37.1486 35.7865 37.0398C35.4388 37.0123 35.0893 37.0123 34.7415 37.0398C34.3973 37.0645 34.0546 37.1073 33.7149 37.1681C32.9327 37.3431 32.1614 37.5635 31.4049 37.8281C31.2555 37.8551 31.1223 37.9389 31.0334 38.062C30.9445 38.185 30.9068 38.3378 30.9282 38.4881C30.967 38.6262 31.0566 38.7446 31.179 38.8194C31.3014 38.8942 31.4476 38.9199 31.5882 38.8914Z" fill="#0066FF"/>
<path fill-rule="evenodd" clip-rule="evenodd" d="M5.02329 21.5664C5.0383 21.6305 5.06597 21.691 5.10468 21.7444C5.14339 21.7977 5.19235 21.8427 5.2487 21.8769C5.30505 21.911 5.36765 21.9336 5.43283 21.9432C5.49801 21.9529 5.56446 21.9494 5.62829 21.933H8.21329H9.31329L10.4133 21.823L13.035 21.493C13.1096 21.4955 13.184 21.4832 13.2539 21.4569C13.3238 21.4305 13.3878 21.3907 13.4423 21.3396C13.4968 21.2885 13.5406 21.2272 13.5714 21.1592C13.6022 21.0911 13.6192 21.0177 13.6216 20.943C13.6241 20.8684 13.6118 20.794 13.5855 20.7241C13.5591 20.6542 13.5193 20.5902 13.4682 20.5357C13.4171 20.4812 13.3558 20.4373 13.2878 20.4066C13.2197 20.3758 13.1463 20.3587 13.0716 20.3564C12.18 20.1929 11.2805 20.0766 10.3766 20.008C9.98599 19.9806 9.59391 19.9806 9.20329 20.008C8.81446 20.0196 8.42766 20.0687 8.04829 20.1547C7.17484 20.3409 6.32142 20.611 5.49995 20.9614C5.42721 20.9654 5.35615 20.9848 5.2915 21.0184C5.22685 21.052 5.1701 21.099 5.12501 21.1562C5.07992 21.2135 5.04753 21.2796 5.02999 21.3504C5.01245 21.4211 5.01016 21.4947 5.02329 21.5664Z" fill="#0066FF"/>
<path fill-rule="evenodd" clip-rule="evenodd" d="M30.3783 43.273C30.3806 43.3493 30.3983 43.4243 30.4302 43.4936C30.4621 43.5629 30.5077 43.6251 30.5641 43.6764C30.6206 43.7277 30.6868 43.7672 30.7588 43.7924C30.8308 43.8176 30.9072 43.828 30.9833 43.823L33.5867 44.153L34.6867 44.263H35.7867H38.3717C38.5028 44.2905 38.6395 44.2656 38.7525 44.1937C38.8656 44.1217 38.946 44.0085 38.9767 43.878C38.993 43.8142 38.9965 43.7477 38.9869 43.6826C38.9772 43.6174 38.9547 43.5548 38.9205 43.4984C38.8864 43.4421 38.8413 43.3931 38.788 43.3544C38.7347 43.3157 38.6742 43.288 38.61 43.273C37.7604 42.9044 36.876 42.6219 35.97 42.4297C35.585 42.4297 35.2 42.3197 34.7967 42.283C34.3933 42.2464 34.0267 42.283 33.6417 42.283C32.7377 42.3504 31.8381 42.4667 30.9467 42.6314C30.8663 42.6335 30.7873 42.6521 30.7144 42.6861C30.6416 42.7201 30.5765 42.7687 30.5232 42.8288C30.4699 42.889 30.4296 42.9595 30.4047 43.0359C30.3797 43.1123 30.3708 43.193 30.3783 43.273Z" fill="#0066FF"/>
</g>
<defs>
<clipPath id="clip0_7962_1299">
<rect width="44" height="44" fill="white" transform="translate(0 7.99976)"/>
</clipPath>
</defs>
</svg>
