<svg width="37" height="34" viewBox="0 0 37 34" fill="none" xmlns="http://www.w3.org/2000/svg">
<path d="M30.0647 3.07703H6.65004C5.75919 3.07703 5.07621 3.80494 5.18015 4.63084L7.85269 27.3361C7.91208 27.896 8.3427 28.3719 8.92176 28.5259L17.949 30.9616C18.2163 31.0316 18.4984 31.0316 18.7657 30.9616L27.7929 28.5259C28.372 28.3719 28.7878 27.896 28.862 27.3361L31.5345 4.63084C31.6385 3.80494 30.9555 3.07703 30.0647 3.07703ZM24.675 10.7761H13.3018L13.7917 14.9756H23.9326C24.2444 14.9756 24.5414 15.1016 24.7641 15.3255C24.9719 15.5495 25.0759 15.8435 25.0462 16.1374L24.3038 23.1366C24.2593 23.5705 23.9475 23.9205 23.5021 24.0465L18.3054 25.4463C18.2015 25.4743 18.0975 25.4883 17.9936 25.4883C17.8897 25.4883 17.7857 25.4743 17.6818 25.4463L12.4851 24.0465C12.01 23.9205 11.6834 23.5005 11.6834 23.0386V20.2389C11.6834 19.665 12.1882 19.1891 12.7969 19.1891C13.4057 19.1891 13.9105 19.665 13.9105 20.2389V22.2407L17.9936 23.3466L22.1509 22.2267L22.7002 17.0893H12.7969C12.2327 17.0893 11.7576 16.6834 11.6834 16.1514L10.941 9.8522C10.9113 9.55824 11.0004 9.26427 11.2231 9.0403C11.431 8.81632 11.7428 8.69034 12.0546 8.69034H24.675C25.2837 8.69034 25.7886 9.16628 25.7886 9.74021C25.7886 10.3141 25.2837 10.7761 24.675 10.7761Z" fill="white"/>
</svg>
