<svg width="15" height="16" viewBox="0 0 15 16" fill="none" xmlns="http://www.w3.org/2000/svg">
<path opacity="0.4" d="M10.625 12.2868H8.125L5.34374 14.2601C4.93124 14.5535 4.375 14.2401 4.375 13.7068V12.2868C2.5 12.2868 1.25 10.9535 1.25 8.95345V4.95345C1.25 2.95345 2.5 1.62012 4.375 1.62012H10.625C12.5 1.62012 13.75 2.95345 13.75 4.95345V8.95345C13.75 10.9535 12.5 12.2868 10.625 12.2868Z" fill="#7C3AED"/>
<path d="M7.50001 8.07324C7.24376 8.07324 7.03126 7.84658 7.03126 7.57324V7.43327C7.03126 6.65993 7.5625 6.27993 7.7625 6.13326C7.99375 5.96659 8.06874 5.85326 8.06874 5.67993C8.06874 5.3466 7.81251 5.07324 7.50001 5.07324C7.18751 5.07324 6.93127 5.3466 6.93127 5.67993C6.93127 5.95326 6.71877 6.17993 6.46252 6.17993C6.20627 6.17993 5.99377 5.95326 5.99377 5.67993C5.99377 4.79326 6.66876 4.07324 7.50001 4.07324C8.33126 4.07324 9.00624 4.79326 9.00624 5.67993C9.00624 6.43993 8.48126 6.81992 8.28751 6.95992C8.04376 7.13325 7.96876 7.2466 7.96876 7.43327V7.57324C7.96876 7.85324 7.75626 8.07324 7.50001 8.07324Z" fill="#7C3AED"/>
<path d="M7.5 9.7334C7.2375 9.7334 7.03125 9.50673 7.03125 9.2334C7.03125 8.96007 7.24375 8.7334 7.5 8.7334C7.75625 8.7334 7.96875 8.96007 7.96875 9.2334C7.96875 9.50673 7.7625 9.7334 7.5 9.7334Z" fill="#7C3AED"/>
</svg>
