<svg width="85" height="75" viewBox="0 0 85 75" fill="none" xmlns="http://www.w3.org/2000/svg">
<path d="M0.259644 2.28906C0.259644 1.74219 0.431519 1.28125 0.775269 0.90625C1.13464 0.515625 1.61902 0.320312 2.22839 0.320312C2.85339 0.320312 3.34558 0.515625 3.70496 0.90625C4.06433 1.28125 4.24402 1.74219 4.24402 2.28906C4.24402 2.82031 4.06433 3.27344 3.70496 3.64844C3.34558 4.02344 2.85339 4.21094 2.22839 4.21094C1.61902 4.21094 1.13464 4.02344 0.775269 3.64844C0.431519 3.27344 0.259644 2.82031 0.259644 2.28906ZM11.744 2.28906C11.744 1.74219 11.9159 1.28125 12.2596 0.90625C12.619 0.515625 13.1034 0.320312 13.7128 0.320312C14.3378 0.320312 14.83 0.515625 15.1893 0.90625C15.5487 1.28125 15.7284 1.74219 15.7284 2.28906C15.7284 2.82031 15.5487 3.27344 15.1893 3.64844C14.83 4.02344 14.3378 4.21094 13.7128 4.21094C13.1034 4.21094 12.619 4.02344 12.2596 3.64844C11.9159 3.27344 11.744 2.82031 11.744 2.28906ZM23.2284 2.28906C23.2284 1.74219 23.4003 1.28125 23.744 0.90625C24.1034 0.515625 24.5878 0.320312 25.1971 0.320312C25.8221 0.320312 26.3143 0.515625 26.6737 0.90625C27.0331 1.28125 27.2128 1.74219 27.2128 2.28906C27.2128 2.82031 27.0331 3.27344 26.6737 3.64844C26.3143 4.02344 25.8221 4.21094 25.1971 4.21094C24.5878 4.21094 24.1034 4.02344 23.744 3.64844C23.4003 3.27344 23.2284 2.82031 23.2284 2.28906ZM34.7128 2.28906C34.7128 1.74219 34.8846 1.28125 35.2284 0.90625C35.5878 0.515625 36.0721 0.320312 36.6815 0.320312C37.3065 0.320312 37.7987 0.515625 38.1581 0.90625C38.5175 1.28125 38.6971 1.74219 38.6971 2.28906C38.6971 2.82031 38.5175 3.27344 38.1581 3.64844C37.7987 4.02344 37.3065 4.21094 36.6815 4.21094C36.0721 4.21094 35.5878 4.02344 35.2284 3.64844C34.8846 3.27344 34.7128 2.82031 34.7128 2.28906ZM46.1971 2.28906C46.1971 1.74219 46.369 1.28125 46.7128 0.90625C47.0721 0.515625 47.5565 0.320312 48.1659 0.320312C48.7909 0.320312 49.2831 0.515625 49.6425 0.90625C50.0018 1.28125 50.1815 1.74219 50.1815 2.28906C50.1815 2.82031 50.0018 3.27344 49.6425 3.64844C49.2831 4.02344 48.7909 4.21094 48.1659 4.21094C47.5565 4.21094 47.0721 4.02344 46.7128 3.64844C46.369 3.27344 46.1971 2.82031 46.1971 2.28906ZM57.6815 2.28906C57.6815 1.74219 57.8534 1.28125 58.1971 0.90625C58.5565 0.515625 59.0409 0.320312 59.6503 0.320312C60.2753 0.320312 60.7675 0.515625 61.1268 0.90625C61.4862 1.28125 61.6659 1.74219 61.6659 2.28906C61.6659 2.82031 61.4862 3.27344 61.1268 3.64844C60.7675 4.02344 60.2753 4.21094 59.6503 4.21094C59.0409 4.21094 58.5565 4.02344 58.1971 3.64844C57.8534 3.27344 57.6815 2.82031 57.6815 2.28906ZM69.1659 2.28906C69.1659 1.74219 69.3378 1.28125 69.6815 0.90625C70.0409 0.515625 70.5253 0.320312 71.1346 0.320312C71.7596 0.320312 72.2518 0.515625 72.6112 0.90625C72.9706 1.28125 73.1503 1.74219 73.1503 2.28906C73.1503 2.82031 72.9706 3.27344 72.6112 3.64844C72.2518 4.02344 71.7596 4.21094 71.1346 4.21094C70.5253 4.21094 70.0409 4.02344 69.6815 3.64844C69.3378 3.27344 69.1659 2.82031 69.1659 2.28906ZM80.6503 2.28906C80.6503 1.74219 80.8221 1.28125 81.1659 0.90625C81.5253 0.515625 82.0096 0.320312 82.619 0.320312C83.244 0.320312 83.7362 0.515625 84.0956 0.90625C84.455 1.28125 84.6346 1.74219 84.6346 2.28906C84.6346 2.82031 84.455 3.27344 84.0956 3.64844C83.7362 4.02344 83.244 4.21094 82.619 4.21094C82.0096 4.21094 81.5253 4.02344 81.1659 3.64844C80.8221 3.27344 80.6503 2.82031 80.6503 2.28906ZM0.259644 16.2891C0.259644 15.7422 0.431519 15.2812 0.775269 14.9062C1.13464 14.5156 1.61902 14.3203 2.22839 14.3203C2.85339 14.3203 3.34558 14.5156 3.70496 14.9062C4.06433 15.2812 4.24402 15.7422 4.24402 16.2891C4.24402 16.8203 4.06433 17.2734 3.70496 17.6484C3.34558 18.0234 2.85339 18.2109 2.22839 18.2109C1.61902 18.2109 1.13464 18.0234 0.775269 17.6484C0.431519 17.2734 0.259644 16.8203 0.259644 16.2891ZM11.744 16.2891C11.744 15.7422 11.9159 15.2812 12.2596 14.9062C12.619 14.5156 13.1034 14.3203 13.7128 14.3203C14.3378 14.3203 14.83 14.5156 15.1893 14.9062C15.5487 15.2812 15.7284 15.7422 15.7284 16.2891C15.7284 16.8203 15.5487 17.2734 15.1893 17.6484C14.83 18.0234 14.3378 18.2109 13.7128 18.2109C13.1034 18.2109 12.619 18.0234 12.2596 17.6484C11.9159 17.2734 11.744 16.8203 11.744 16.2891ZM23.2284 16.2891C23.2284 15.7422 23.4003 15.2812 23.744 14.9062C24.1034 14.5156 24.5878 14.3203 25.1971 14.3203C25.8221 14.3203 26.3143 14.5156 26.6737 14.9062C27.0331 15.2812 27.2128 15.7422 27.2128 16.2891C27.2128 16.8203 27.0331 17.2734 26.6737 17.6484C26.3143 18.0234 25.8221 18.2109 25.1971 18.2109C24.5878 18.2109 24.1034 18.0234 23.744 17.6484C23.4003 17.2734 23.2284 16.8203 23.2284 16.2891ZM34.7128 16.2891C34.7128 15.7422 34.8846 15.2812 35.2284 14.9062C35.5878 14.5156 36.0721 14.3203 36.6815 14.3203C37.3065 14.3203 37.7987 14.5156 38.1581 14.9062C38.5175 15.2812 38.6971 15.7422 38.6971 16.2891C38.6971 16.8203 38.5175 17.2734 38.1581 17.6484C37.7987 18.0234 37.3065 18.2109 36.6815 18.2109C36.0721 18.2109 35.5878 18.0234 35.2284 17.6484C34.8846 17.2734 34.7128 16.8203 34.7128 16.2891ZM46.1971 16.2891C46.1971 15.7422 46.369 15.2812 46.7128 14.9062C47.0721 14.5156 47.5565 14.3203 48.1659 14.3203C48.7909 14.3203 49.2831 14.5156 49.6425 14.9062C50.0018 15.2812 50.1815 15.7422 50.1815 16.2891C50.1815 16.8203 50.0018 17.2734 49.6425 17.6484C49.2831 18.0234 48.7909 18.2109 48.1659 18.2109C47.5565 18.2109 47.0721 18.0234 46.7128 17.6484C46.369 17.2734 46.1971 16.8203 46.1971 16.2891ZM57.6815 16.2891C57.6815 15.7422 57.8534 15.2812 58.1971 14.9062C58.5565 14.5156 59.0409 14.3203 59.6503 14.3203C60.2753 14.3203 60.7675 14.5156 61.1268 14.9062C61.4862 15.2812 61.6659 15.7422 61.6659 16.2891C61.6659 16.8203 61.4862 17.2734 61.1268 17.6484C60.7675 18.0234 60.2753 18.2109 59.6503 18.2109C59.0409 18.2109 58.5565 18.0234 58.1971 17.6484C57.8534 17.2734 57.6815 16.8203 57.6815 16.2891ZM69.1659 16.2891C69.1659 15.7422 69.3378 15.2812 69.6815 14.9062C70.0409 14.5156 70.5253 14.3203 71.1346 14.3203C71.7596 14.3203 72.2518 14.5156 72.6112 14.9062C72.9706 15.2812 73.1503 15.7422 73.1503 16.2891C73.1503 16.8203 72.9706 17.2734 72.6112 17.6484C72.2518 18.0234 71.7596 18.2109 71.1346 18.2109C70.5253 18.2109 70.0409 18.0234 69.6815 17.6484C69.3378 17.2734 69.1659 16.8203 69.1659 16.2891ZM80.6503 16.2891C80.6503 15.7422 80.8221 15.2812 81.1659 14.9062C81.5253 14.5156 82.0096 14.3203 82.619 14.3203C83.244 14.3203 83.7362 14.5156 84.0956 14.9062C84.455 15.2812 84.6346 15.7422 84.6346 16.2891C84.6346 16.8203 84.455 17.2734 84.0956 17.6484C83.7362 18.0234 83.244 18.2109 82.619 18.2109C82.0096 18.2109 81.5253 18.0234 81.1659 17.6484C80.8221 17.2734 80.6503 16.8203 80.6503 16.2891ZM0.259644 30.2891C0.259644 29.7422 0.431519 29.2812 0.775269 28.9062C1.13464 28.5156 1.61902 28.3203 2.22839 28.3203C2.85339 28.3203 3.34558 28.5156 3.70496 28.9062C4.06433 29.2812 4.24402 29.7422 4.24402 30.2891C4.24402 30.8203 4.06433 31.2734 3.70496 31.6484C3.34558 32.0234 2.85339 32.2109 2.22839 32.2109C1.61902 32.2109 1.13464 32.0234 0.775269 31.6484C0.431519 31.2734 0.259644 30.8203 0.259644 30.2891ZM11.744 30.2891C11.744 29.7422 11.9159 29.2812 12.2596 28.9062C12.619 28.5156 13.1034 28.3203 13.7128 28.3203C14.3378 28.3203 14.83 28.5156 15.1893 28.9062C15.5487 29.2812 15.7284 29.7422 15.7284 30.2891C15.7284 30.8203 15.5487 31.2734 15.1893 31.6484C14.83 32.0234 14.3378 32.2109 13.7128 32.2109C13.1034 32.2109 12.619 32.0234 12.2596 31.6484C11.9159 31.2734 11.744 30.8203 11.744 30.2891ZM23.2284 30.2891C23.2284 29.7422 23.4003 29.2812 23.744 28.9062C24.1034 28.5156 24.5878 28.3203 25.1971 28.3203C25.8221 28.3203 26.3143 28.5156 26.6737 28.9062C27.0331 29.2812 27.2128 29.7422 27.2128 30.2891C27.2128 30.8203 27.0331 31.2734 26.6737 31.6484C26.3143 32.0234 25.8221 32.2109 25.1971 32.2109C24.5878 32.2109 24.1034 32.0234 23.744 31.6484C23.4003 31.2734 23.2284 30.8203 23.2284 30.2891ZM34.7128 30.2891C34.7128 29.7422 34.8846 29.2812 35.2284 28.9062C35.5878 28.5156 36.0721 28.3203 36.6815 28.3203C37.3065 28.3203 37.7987 28.5156 38.1581 28.9062C38.5175 29.2812 38.6971 29.7422 38.6971 30.2891C38.6971 30.8203 38.5175 31.2734 38.1581 31.6484C37.7987 32.0234 37.3065 32.2109 36.6815 32.2109C36.0721 32.2109 35.5878 32.0234 35.2284 31.6484C34.8846 31.2734 34.7128 30.8203 34.7128 30.2891ZM46.1971 30.2891C46.1971 29.7422 46.369 29.2812 46.7128 28.9062C47.0721 28.5156 47.5565 28.3203 48.1659 28.3203C48.7909 28.3203 49.2831 28.5156 49.6425 28.9062C50.0018 29.2812 50.1815 29.7422 50.1815 30.2891C50.1815 30.8203 50.0018 31.2734 49.6425 31.6484C49.2831 32.0234 48.7909 32.2109 48.1659 32.2109C47.5565 32.2109 47.0721 32.0234 46.7128 31.6484C46.369 31.2734 46.1971 30.8203 46.1971 30.2891ZM57.6815 30.2891C57.6815 29.7422 57.8534 29.2812 58.1971 28.9062C58.5565 28.5156 59.0409 28.3203 59.6503 28.3203C60.2753 28.3203 60.7675 28.5156 61.1268 28.9062C61.4862 29.2812 61.6659 29.7422 61.6659 30.2891C61.6659 30.8203 61.4862 31.2734 61.1268 31.6484C60.7675 32.0234 60.2753 32.2109 59.6503 32.2109C59.0409 32.2109 58.5565 32.0234 58.1971 31.6484C57.8534 31.2734 57.6815 30.8203 57.6815 30.2891ZM69.1659 30.2891C69.1659 29.7422 69.3378 29.2812 69.6815 28.9062C70.0409 28.5156 70.5253 28.3203 71.1346 28.3203C71.7596 28.3203 72.2518 28.5156 72.6112 28.9062C72.9706 29.2812 73.1503 29.7422 73.1503 30.2891C73.1503 30.8203 72.9706 31.2734 72.6112 31.6484C72.2518 32.0234 71.7596 32.2109 71.1346 32.2109C70.5253 32.2109 70.0409 32.0234 69.6815 31.6484C69.3378 31.2734 69.1659 30.8203 69.1659 30.2891ZM80.6503 30.2891C80.6503 29.7422 80.8221 29.2812 81.1659 28.9062C81.5253 28.5156 82.0096 28.3203 82.619 28.3203C83.244 28.3203 83.7362 28.5156 84.0956 28.9062C84.455 29.2812 84.6346 29.7422 84.6346 30.2891C84.6346 30.8203 84.455 31.2734 84.0956 31.6484C83.7362 32.0234 83.244 32.2109 82.619 32.2109C82.0096 32.2109 81.5253 32.0234 81.1659 31.6484C80.8221 31.2734 80.6503 30.8203 80.6503 30.2891ZM0.259644 44.2891C0.259644 43.7422 0.431519 43.2812 0.775269 42.9062C1.13464 42.5156 1.61902 42.3203 2.22839 42.3203C2.85339 42.3203 3.34558 42.5156 3.70496 42.9062C4.06433 43.2812 4.24402 43.7422 4.24402 44.2891C4.24402 44.8203 4.06433 45.2734 3.70496 45.6484C3.34558 46.0234 2.85339 46.2109 2.22839 46.2109C1.61902 46.2109 1.13464 46.0234 0.775269 45.6484C0.431519 45.2734 0.259644 44.8203 0.259644 44.2891ZM11.744 44.2891C11.744 43.7422 11.9159 43.2812 12.2596 42.9062C12.619 42.5156 13.1034 42.3203 13.7128 42.3203C14.3378 42.3203 14.83 42.5156 15.1893 42.9062C15.5487 43.2812 15.7284 43.7422 15.7284 44.2891C15.7284 44.8203 15.5487 45.2734 15.1893 45.6484C14.83 46.0234 14.3378 46.2109 13.7128 46.2109C13.1034 46.2109 12.619 46.0234 12.2596 45.6484C11.9159 45.2734 11.744 44.8203 11.744 44.2891ZM23.2284 44.2891C23.2284 43.7422 23.4003 43.2812 23.744 42.9062C24.1034 42.5156 24.5878 42.3203 25.1971 42.3203C25.8221 42.3203 26.3143 42.5156 26.6737 42.9062C27.0331 43.2812 27.2128 43.7422 27.2128 44.2891C27.2128 44.8203 27.0331 45.2734 26.6737 45.6484C26.3143 46.0234 25.8221 46.2109 25.1971 46.2109C24.5878 46.2109 24.1034 46.0234 23.744 45.6484C23.4003 45.2734 23.2284 44.8203 23.2284 44.2891ZM34.7128 44.2891C34.7128 43.7422 34.8846 43.2812 35.2284 42.9062C35.5878 42.5156 36.0721 42.3203 36.6815 42.3203C37.3065 42.3203 37.7987 42.5156 38.1581 42.9062C38.5175 43.2812 38.6971 43.7422 38.6971 44.2891C38.6971 44.8203 38.5175 45.2734 38.1581 45.6484C37.7987 46.0234 37.3065 46.2109 36.6815 46.2109C36.0721 46.2109 35.5878 46.0234 35.2284 45.6484C34.8846 45.2734 34.7128 44.8203 34.7128 44.2891ZM46.1971 44.2891C46.1971 43.7422 46.369 43.2812 46.7128 42.9062C47.0721 42.5156 47.5565 42.3203 48.1659 42.3203C48.7909 42.3203 49.2831 42.5156 49.6425 42.9062C50.0018 43.2812 50.1815 43.7422 50.1815 44.2891C50.1815 44.8203 50.0018 45.2734 49.6425 45.6484C49.2831 46.0234 48.7909 46.2109 48.1659 46.2109C47.5565 46.2109 47.0721 46.0234 46.7128 45.6484C46.369 45.2734 46.1971 44.8203 46.1971 44.2891ZM57.6815 44.2891C57.6815 43.7422 57.8534 43.2812 58.1971 42.9062C58.5565 42.5156 59.0409 42.3203 59.6503 42.3203C60.2753 42.3203 60.7675 42.5156 61.1268 42.9062C61.4862 43.2812 61.6659 43.7422 61.6659 44.2891C61.6659 44.8203 61.4862 45.2734 61.1268 45.6484C60.7675 46.0234 60.2753 46.2109 59.6503 46.2109C59.0409 46.2109 58.5565 46.0234 58.1971 45.6484C57.8534 45.2734 57.6815 44.8203 57.6815 44.2891ZM69.1659 44.2891C69.1659 43.7422 69.3378 43.2812 69.6815 42.9062C70.0409 42.5156 70.5253 42.3203 71.1346 42.3203C71.7596 42.3203 72.2518 42.5156 72.6112 42.9062C72.9706 43.2812 73.1503 43.7422 73.1503 44.2891C73.1503 44.8203 72.9706 45.2734 72.6112 45.6484C72.2518 46.0234 71.7596 46.2109 71.1346 46.2109C70.5253 46.2109 70.0409 46.0234 69.6815 45.6484C69.3378 45.2734 69.1659 44.8203 69.1659 44.2891ZM80.6503 44.2891C80.6503 43.7422 80.8221 43.2812 81.1659 42.9062C81.5253 42.5156 82.0096 42.3203 82.619 42.3203C83.244 42.3203 83.7362 42.5156 84.0956 42.9062C84.455 43.2812 84.6346 43.7422 84.6346 44.2891C84.6346 44.8203 84.455 45.2734 84.0956 45.6484C83.7362 46.0234 83.244 46.2109 82.619 46.2109C82.0096 46.2109 81.5253 46.0234 81.1659 45.6484C80.8221 45.2734 80.6503 44.8203 80.6503 44.2891ZM0.259644 58.2891C0.259644 57.7422 0.431519 57.2812 0.775269 56.9062C1.13464 56.5156 1.61902 56.3203 2.22839 56.3203C2.85339 56.3203 3.34558 56.5156 3.70496 56.9062C4.06433 57.2812 4.24402 57.7422 4.24402 58.2891C4.24402 58.8203 4.06433 59.2734 3.70496 59.6484C3.34558 60.0234 2.85339 60.2109 2.22839 60.2109C1.61902 60.2109 1.13464 60.0234 0.775269 59.6484C0.431519 59.2734 0.259644 58.8203 0.259644 58.2891ZM11.744 58.2891C11.744 57.7422 11.9159 57.2812 12.2596 56.9062C12.619 56.5156 13.1034 56.3203 13.7128 56.3203C14.3378 56.3203 14.83 56.5156 15.1893 56.9062C15.5487 57.2812 15.7284 57.7422 15.7284 58.2891C15.7284 58.8203 15.5487 59.2734 15.1893 59.6484C14.83 60.0234 14.3378 60.2109 13.7128 60.2109C13.1034 60.2109 12.619 60.0234 12.2596 59.6484C11.9159 59.2734 11.744 58.8203 11.744 58.2891ZM23.2284 58.2891C23.2284 57.7422 23.4003 57.2812 23.744 56.9062C24.1034 56.5156 24.5878 56.3203 25.1971 56.3203C25.8221 56.3203 26.3143 56.5156 26.6737 56.9062C27.0331 57.2812 27.2128 57.7422 27.2128 58.2891C27.2128 58.8203 27.0331 59.2734 26.6737 59.6484C26.3143 60.0234 25.8221 60.2109 25.1971 60.2109C24.5878 60.2109 24.1034 60.0234 23.744 59.6484C23.4003 59.2734 23.2284 58.8203 23.2284 58.2891ZM34.7128 58.2891C34.7128 57.7422 34.8846 57.2812 35.2284 56.9062C35.5878 56.5156 36.0721 56.3203 36.6815 56.3203C37.3065 56.3203 37.7987 56.5156 38.1581 56.9062C38.5175 57.2812 38.6971 57.7422 38.6971 58.2891C38.6971 58.8203 38.5175 59.2734 38.1581 59.6484C37.7987 60.0234 37.3065 60.2109 36.6815 60.2109C36.0721 60.2109 35.5878 60.0234 35.2284 59.6484C34.8846 59.2734 34.7128 58.8203 34.7128 58.2891ZM46.1971 58.2891C46.1971 57.7422 46.369 57.2812 46.7128 56.9062C47.0721 56.5156 47.5565 56.3203 48.1659 56.3203C48.7909 56.3203 49.2831 56.5156 49.6425 56.9062C50.0018 57.2812 50.1815 57.7422 50.1815 58.2891C50.1815 58.8203 50.0018 59.2734 49.6425 59.6484C49.2831 60.0234 48.7909 60.2109 48.1659 60.2109C47.5565 60.2109 47.0721 60.0234 46.7128 59.6484C46.369 59.2734 46.1971 58.8203 46.1971 58.2891ZM57.6815 58.2891C57.6815 57.7422 57.8534 57.2812 58.1971 56.9062C58.5565 56.5156 59.0409 56.3203 59.6503 56.3203C60.2753 56.3203 60.7675 56.5156 61.1268 56.9062C61.4862 57.2812 61.6659 57.7422 61.6659 58.2891C61.6659 58.8203 61.4862 59.2734 61.1268 59.6484C60.7675 60.0234 60.2753 60.2109 59.6503 60.2109C59.0409 60.2109 58.5565 60.0234 58.1971 59.6484C57.8534 59.2734 57.6815 58.8203 57.6815 58.2891ZM69.1659 58.2891C69.1659 57.7422 69.3378 57.2812 69.6815 56.9062C70.0409 56.5156 70.5253 56.3203 71.1346 56.3203C71.7596 56.3203 72.2518 56.5156 72.6112 56.9062C72.9706 57.2812 73.1503 57.7422 73.1503 58.2891C73.1503 58.8203 72.9706 59.2734 72.6112 59.6484C72.2518 60.0234 71.7596 60.2109 71.1346 60.2109C70.5253 60.2109 70.0409 60.0234 69.6815 59.6484C69.3378 59.2734 69.1659 58.8203 69.1659 58.2891ZM80.6503 58.2891C80.6503 57.7422 80.8221 57.2812 81.1659 56.9062C81.5253 56.5156 82.0096 56.3203 82.619 56.3203C83.244 56.3203 83.7362 56.5156 84.0956 56.9062C84.455 57.2812 84.6346 57.7422 84.6346 58.2891C84.6346 58.8203 84.455 59.2734 84.0956 59.6484C83.7362 60.0234 83.244 60.2109 82.619 60.2109C82.0096 60.2109 81.5253 60.0234 81.1659 59.6484C80.8221 59.2734 80.6503 58.8203 80.6503 58.2891ZM0.259644 72.2891C0.259644 71.7422 0.431519 71.2812 0.775269 70.9062C1.13464 70.5156 1.61902 70.3203 2.22839 70.3203C2.85339 70.3203 3.34558 70.5156 3.70496 70.9062C4.06433 71.2812 4.24402 71.7422 4.24402 72.2891C4.24402 72.8203 4.06433 73.2734 3.70496 73.6484C3.34558 74.0234 2.85339 74.2109 2.22839 74.2109C1.61902 74.2109 1.13464 74.0234 0.775269 73.6484C0.431519 73.2734 0.259644 72.8203 0.259644 72.2891ZM11.744 72.2891C11.744 71.7422 11.9159 71.2812 12.2596 70.9062C12.619 70.5156 13.1034 70.3203 13.7128 70.3203C14.3378 70.3203 14.83 70.5156 15.1893 70.9062C15.5487 71.2812 15.7284 71.7422 15.7284 72.2891C15.7284 72.8203 15.5487 73.2734 15.1893 73.6484C14.83 74.0234 14.3378 74.2109 13.7128 74.2109C13.1034 74.2109 12.619 74.0234 12.2596 73.6484C11.9159 73.2734 11.744 72.8203 11.744 72.2891ZM23.2284 72.2891C23.2284 71.7422 23.4003 71.2812 23.744 70.9062C24.1034 70.5156 24.5878 70.3203 25.1971 70.3203C25.8221 70.3203 26.3143 70.5156 26.6737 70.9062C27.0331 71.2812 27.2128 71.7422 27.2128 72.2891C27.2128 72.8203 27.0331 73.2734 26.6737 73.6484C26.3143 74.0234 25.8221 74.2109 25.1971 74.2109C24.5878 74.2109 24.1034 74.0234 23.744 73.6484C23.4003 73.2734 23.2284 72.8203 23.2284 72.2891ZM34.7128 72.2891C34.7128 71.7422 34.8846 71.2812 35.2284 70.9062C35.5878 70.5156 36.0721 70.3203 36.6815 70.3203C37.3065 70.3203 37.7987 70.5156 38.1581 70.9062C38.5175 71.2812 38.6971 71.7422 38.6971 72.2891C38.6971 72.8203 38.5175 73.2734 38.1581 73.6484C37.7987 74.0234 37.3065 74.2109 36.6815 74.2109C36.0721 74.2109 35.5878 74.0234 35.2284 73.6484C34.8846 73.2734 34.7128 72.8203 34.7128 72.2891ZM46.1971 72.2891C46.1971 71.7422 46.369 71.2812 46.7128 70.9062C47.0721 70.5156 47.5565 70.3203 48.1659 70.3203C48.7909 70.3203 49.2831 70.5156 49.6425 70.9062C50.0018 71.2812 50.1815 71.7422 50.1815 72.2891C50.1815 72.8203 50.0018 73.2734 49.6425 73.6484C49.2831 74.0234 48.7909 74.2109 48.1659 74.2109C47.5565 74.2109 47.0721 74.0234 46.7128 73.6484C46.369 73.2734 46.1971 72.8203 46.1971 72.2891ZM57.6815 72.2891C57.6815 71.7422 57.8534 71.2812 58.1971 70.9062C58.5565 70.5156 59.0409 70.3203 59.6503 70.3203C60.2753 70.3203 60.7675 70.5156 61.1268 70.9062C61.4862 71.2812 61.6659 71.7422 61.6659 72.2891C61.6659 72.8203 61.4862 73.2734 61.1268 73.6484C60.7675 74.0234 60.2753 74.2109 59.6503 74.2109C59.0409 74.2109 58.5565 74.0234 58.1971 73.6484C57.8534 73.2734 57.6815 72.8203 57.6815 72.2891ZM69.1659 72.2891C69.1659 71.7422 69.3378 71.2812 69.6815 70.9062C70.0409 70.5156 70.5253 70.3203 71.1346 70.3203C71.7596 70.3203 72.2518 70.5156 72.6112 70.9062C72.9706 71.2812 73.1503 71.7422 73.1503 72.2891C73.1503 72.8203 72.9706 73.2734 72.6112 73.6484C72.2518 74.0234 71.7596 74.2109 71.1346 74.2109C70.5253 74.2109 70.0409 74.0234 69.6815 73.6484C69.3378 73.2734 69.1659 72.8203 69.1659 72.2891ZM80.6503 72.2891C80.6503 71.7422 80.8221 71.2812 81.1659 70.9062C81.5253 70.5156 82.0096 70.3203 82.619 70.3203C83.244 70.3203 83.7362 70.5156 84.0956 70.9062C84.455 71.2812 84.6346 71.7422 84.6346 72.2891C84.6346 72.8203 84.455 73.2734 84.0956 73.6484C83.7362 74.0234 83.244 74.2109 82.619 74.2109C82.0096 74.2109 81.5253 74.0234 81.1659 73.6484C80.8221 73.2734 80.6503 72.8203 80.6503 72.2891Z" fill="#7C3AED" fill-opacity="0.5"/>
</svg>
