<svg width="30" height="21" viewBox="0 0 30 21" fill="none" xmlns="http://www.w3.org/2000/svg">
<path d="M18.6738 14.304C19.5617 15.6862 20.717 16.7023 22.7602 16.7023C24.4767 16.7023 25.5731 15.8844 25.5731 14.7543C25.5731 13.4 24.4466 12.9204 22.5573 12.1325L21.5217 11.7089C18.5324 10.4948 16.5466 8.97373 16.5466 5.75823C16.5466 2.79623 18.9138 0.541382 22.6133 0.541382C25.2471 0.541382 27.1405 1.4153 28.505 3.70351L25.2793 5.67817C24.569 4.46402 23.8028 3.9857 22.6133 3.9857C21.3999 3.9857 20.6309 4.71953 20.6309 5.67817C20.6309 6.86297 21.4006 7.34263 23.178 8.07646L24.2136 8.49941C27.7332 9.93838 29.7205 11.4054 29.7205 14.7036C29.7205 18.2593 26.7907 20.2073 22.8561 20.2073C19.0089 20.2073 16.5235 18.4594 15.3073 16.1686L18.6738 14.304ZM4.04023 14.6462C4.69098 15.747 5.28296 16.6776 6.70622 16.6776C8.0672 16.6776 8.92577 16.1699 8.92577 14.1959V0.766865H13.0682V14.2493C13.0682 18.3387 10.5534 20.2 6.88255 20.2C3.56581 20.2 1.64504 18.5635 0.668213 16.5925L4.04023 14.6462Z" fill="white"/>
</svg>
